<?xml version="1.0" encoding="utf-8"?>
<!-- Generator: Adobe Illustrator 27.4.0, SVG Export Plug-In . SVG Version: 6.00 Build 0)  -->
<svg version="1.1" id="图层_1" xmlns="http://www.w3.org/2000/svg" xmlns:xlink="http://www.w3.org/1999/xlink" x="0px" y="0px"
	 viewBox="0 0 160 160" style="enable-background:new 0 0 160 160;" xml:space="preserve">
<style type="text/css">
	.st0{fill:#3A84FF;}
	.st1{fill:#15C7E0;}
</style>
<g>
	<path class="st0" d="M40.4,47.5c24.5,4.5,54.7,4.5,79.2,0s39.6-12.7,39.6-21.7c0-13.8-35.4-25-79.2-25S0.8,12,0.8,25.8
		C0.8,34.8,15.9,43,40.4,47.5z"/>
	<path class="st0" d="M155,100.6c-10.6,9.8-40.2,16.9-75,16.9s-64.3-7.1-75-16.9c-0.7-0.7-1.8-0.9-2.7-0.5c-0.9,0.4-1.5,1.3-1.5,2.3
		v31.8c0,13.8,35.5,25,79.2,25s79.2-11.2,79.2-25v-31.8C159.2,100.2,156.6,99.1,155,100.6z"/>
	<path class="st1" d="M155,46.4c-10.6,9.8-40.2,16.9-75,16.9S15.7,56.2,5,46.4c-0.7-0.7-1.8-0.9-2.7-0.5c-0.9,0.4-1.5,1.3-1.5,2.3
		V80c0,13.8,35.5,25,79.2,25s79.2-11.2,79.2-25V48.2C159.2,46,156.6,44.9,155,46.4z"/>
</g>
</svg>
