<?xml version="1.0" standalone="no"?>
  <!DOCTYPE svg PUBLIC "-//W3C//DTD SVG 1.1//EN" "http://www.w3.org/Graphics/SVG/1.1/DTD/svg11.dtd" >
  <svg>
  <metadata>
  Created by font-carrier
  </metadata>
  <defs>
  <font id="iconfont" horiz-adv-x="1024" vert-adv-y="1024" >
    <font-face
      
      font-family="iconfont"
      
      font-weight="400"
      
      font-stretch="normal"
      
      units-per-em="1024"
      
      ascent="812"
      
      descent="-212"
      
    />
      <missing-glyph />

      
      <glyph glyph-name="x" unicode="&#x78;" horiz-adv-x="100"
        d="M20 20 L50 20 L50 -20 Z" />
      

      
      <glyph glyph-name="uniE1A7" unicode="&#xE1A7;" d="M512 748C264.6 748 64 547.4 64 300S264.6-148 512-148 960 52.6 960 300 759.4 748 512 748ZM485.7 141.7L304.7 322.7 350 368 485.8 232.2 712 458.5 757.3 413.2 485.7 141.7Z"  horiz-adv-x="1024" vert-adv-y="1024"  />

      
      <glyph glyph-name="uniE173" unicode="&#xE173;" d="M512 748C264 748 64 548 64 300S264-148 512-148 960 52 960 300 760 748 512 748ZM512 44C484.8 44 464 64.8 464 92S484.8 140 512 140C539.2 140 560 119.2 560 92S539.2 44 512 44ZM560 503.2L544 204C544 186.4 529.6 172 512 172 494.4 172 480 186.4 480 204L464 503.2C464 504.8 464 506.4 464 508 464 535.2 484.8 556 512 556 539.2 556 560 535.2 560 508 560 506.4 560 504.8 560 503.2Z"  horiz-adv-x="1024" vert-adv-y="1024"  />

      
      <glyph glyph-name="uniE152" unicode="&#xE152;" d="M512 412M448 412A64 64 0 1 1 576 412 64 64 0 1 1 448 412ZM496 738.4C363.2 666.4 214.4 634.4 153.6 623.2 137.6 620 126.4 607.2 126.4 591.2V188C126.4-36 510.4-148 510.4-148S894.4-36 894.4 188V592.8C894.4 608.8 883.2 621.6 868.8 624.8 808 634.4 651.2 668 528 738.4 518.4 744.8 505.6 744.8 496 738.4ZM704 124C704 114.4 697.6 108 688 108H656C646.4 108 640 114.4 640 124V172C640 234.4 590.4 284 528 284H496C433.6 284 384 234.4 384 172V124C384 114.4 377.6 108 368 108H336C326.4 108 320 114.4 320 124V172C320 240.8 358.4 298.4 416 328.8 396.8 351.2 384 380 384 412 384 482.4 441.6 540 512 540S640 482.4 640 412C640 380 628.8 351.2 608 328.8 664 300 704 240.8 704 172V124Z"  horiz-adv-x="1024" vert-adv-y="1024"  />

      
      <glyph glyph-name="uniE144" unicode="&#xE144;" d="M512 716C742.2857 716 928 530.2857 928 300 928 69.7143 742.2857-116 512-116 281.7143-116 96 69.7143 96 300 96 530.2857 281.7143 716 512 716ZM734.8571 240.5714L675.4286 240.5714 675.4286 181.1429 616 181.1429 616 121.7143 675.4286 121.7143 675.4286 62.2857 734.8571 62.2857 734.8571 121.7143 794.2857 121.7143 794.2857 181.1429 734.8571 181.1429 734.8571 240.5714ZM614.5143 536.2286C550.6286 592.6857 451.0857 586.7429 394.6286 522.8571 338.1714 457.4857 344.1143 359.4286 408 302.9714 335.2 267.3143 289.1429 194.5143 289.1429 114.2857L289.1429 114.2857 289.1429 81.6C289.1429 72.6857 295.0857 66.7429 304 66.7429L304 66.7429 333.7143 66.7429C342.6286 66.7429 348.5714 72.6857 348.5714 81.6L348.5714 81.6 348.5714 114.2857C348.5714 196 415.4286 262.8571 497.1429 262.8571L497.1429 262.8571 526.8571 262.8571C553.6 262.8571 580.3429 255.4286 604.1143 240.5714 605.6 240.5714 607.0857 239.0857 605.6 239.0857 620.4571 231.6571 638.2857 237.6 645.7143 252.4571 653.1429 267.3143 647.2 285.1429 632.3429 292.5714 626.4 295.5429 620.4571 300 614.5143 302.9714L614.5143 302.9714 627.8857 316.3429C684.3429 380.2286 678.4 479.7714 614.5143 536.2286ZM512 515.4286C565.3349 515.4286 608.5714 472.1921 608.5714 418.8571 608.5714 365.5222 565.3349 322.2857 512 322.2857 458.6651 322.2857 415.4286 365.5222 415.4286 418.8571 415.4286 472.1921 458.6651 515.4286 512 515.4286Z"  horiz-adv-x="1024" vert-adv-y="1024"  />

      
      <glyph glyph-name="uniE1BE" unicode="&#xE1BE;" d="M512 748C264 748 64 548 64 300S264-148 512-148 960 52 960 300 760 748 512 748ZM692.8 164L648 119.2 512 255.2 376 119.2 331.2 164 467.2 300 331.2 436 376 480.8 512 344.8 648 480.8 692.8 436 556.8 300 692.8 164Z"  horiz-adv-x="1024" vert-adv-y="1024"  />

      
      <glyph glyph-name="uniE1A3" unicode="&#xE1A3;" d="M822.4 318.56L383.36 675.04C373.12 683.36 357.12 685.92 343.04 682.08S320 668 320 656.48V-56.48C320-68 328.96-77.6 343.04-82.08 347.52-83.36 352-84 356.48-84 366.72-84 376.32-80.8 383.36-75.04L822.4 281.44C835.2 291.68 835.2 308.32 822.4 318.56Z"  horiz-adv-x="1024" vert-adv-y="1024"  />

      
      <glyph glyph-name="uniE15F" unicode="&#xE15F;" d="M886.4 674.4C873.6 687.2 854.4 687.2 841.6 674.4L473.6 306.4C460.8 293.6 460.8 274.4 473.6 261.6 480 255.2 488 252 496 252S512 255.2 518.4 261.6L886.4 629.6C899.2 642.4 899.2 661.6 886.4 674.4ZM816 92H304V604H624V668L272 668C254.4 668 240 653.6 240 636V540H144C126.4 540 112 525.6 112 508V-68C112-85.6 126.4-100 144-100H720C737.6-100 752-85.6 752-68V28H848C865.6 28 880 42.4 880 60V412H816V92ZM688-36H176V476H240V60C240 42.4 254.4 28 272 28H688V-36Z"  horiz-adv-x="1024" vert-adv-y="1024"  />

      
      <glyph glyph-name="uniE1BD" unicode="&#xE1BD;" d="M860.8 684H163.2A32 32 0 0 1 135.84 632L431.04 296 432 296V-84L592-1.28V295.2L592.96 295.2 888.16 631.2A32 32 0 0 1 860.8 684Z"  horiz-adv-x="1024" vert-adv-y="1024"  />

      
      <glyph glyph-name="uniE1AE" unicode="&#xE1AE;" d="M960 620H64V-20H960V620L960 620ZM128 44V556H896V44H128L128 44ZM304 156L192 156 192 92 304 92 304 156ZM672 156L336 156 336 92 672 92 672 156ZM832 156L704 156 704 92 832 92 832 156ZM336 268L192 268 192 204 336 204 336 268ZM432 268L368 268 368 204 432 204 432 268ZM832 268L656 268 656 204 832 204 832 268ZM528 268L464 268 464 204 528 204 528 268ZM624 268L560 268 560 204 624 204 624 268ZM288 380L192 380 192 316 288 316 288 380ZM384 380L320 380 320 316 384 316 384 380ZM480 380L416 380 416 316 480 316 480 380ZM576 380L512 380 512 316 576 316 576 380ZM672 380L608 380 608 316 672 316 672 380ZM832 380L704 380 704 316 832 316 832 380ZM256 492L192 492 192 428 256 428 256 492ZM352 492L288 492 288 428 352 428 352 492ZM448 492L384 492 384 428 448 428 448 492ZM544 492L480 492 480 428 544 428 544 492ZM640 492L576 492 576 428 640 428 640 492ZM736 492L672 492 672 428 736 428 736 492ZM832 492L768 492 768 428 832 428 832 492Z"  horiz-adv-x="1024" vert-adv-y="1024"  />

      
      <glyph glyph-name="uniE145" unicode="&#xE145;" d="M866.4 684L157.6 684C141.2524 684 128 670.7476 128 654.4L128-54.4C128-62.2504 131.1186-69.7793 136.6696-75.3304 142.2207-80.8814 149.7496-84 157.6-84L866.4-84C882.7476-84 896-70.7476 896-54.4L896 654.4C896 670.7476 882.7476 684 866.4 684ZM320 246.56L410.56 156 320 156 320 246.56ZM752 20L272 20 272 84 752 84 752 20ZM429.28 174.72L338.72 265.28 674.72 601.28 765.28 510.72 429.28 174.72Z"  horiz-adv-x="1024" vert-adv-y="1024"  />

      
      <glyph glyph-name="uniE146" unicode="&#xE146;" d="M237.7275 611.989L237.7275 559.9835C237.7275 528.7744 259.6668 507.9781 292.5913 507.9781L292.5913 507.9781 731.4396 507.9781C764.364 507.9781 786.3033 528.7744 786.3033 559.9835L786.3033 559.9835 786.3033 611.989 841.1362 611.989C874.0607 611.989 896 591.1927 896 559.9835L896 559.9835 896-63.9945C896-95.2037 874.0607-116 841.1362-116L841.1362-116 182.8638-116C155.4319-116 128-89.9973 128-63.9945L128-63.9945 128 559.9835C128 585.9863 155.4319 611.989 182.8638 611.989L182.8638 611.989 237.7275 611.989ZM676.5758 91.9927L237.7275 91.9927 237.7275 39.9872 676.5758 39.9872 676.5758 91.9927ZM566.8792 247.9799L237.7275 247.9799 237.7275 195.9744 566.8792 195.9744 566.8792 247.9799ZM786.3033 403.9963L237.7275 403.9963 237.7275 351.9909 786.3033 351.9909 786.3033 403.9963ZM676.6067 716C704.0386 716 731.4704 689.9973 731.4704 663.9945L731.4704 663.9945 731.4704 611.989C731.4704 585.9863 704.0386 559.9835 676.6067 559.9835L676.6067 559.9835 347.455 559.9835C320.0231 559.9835 292.5913 585.9863 292.5913 611.989L292.5913 611.989 292.5913 663.9945C292.5913 689.9973 320.0231 716 347.455 716L347.455 716Z"  horiz-adv-x="1024" vert-adv-y="1024"  />

      
      <glyph glyph-name="uniE136" unicode="&#xE136;" d="M608 746.4H161.6C144 746.4 129.6 732 129.6 714.4V-114.4C129.6-132 144-146.4 161.6-146.4H864C881.6-146.4 896-132 896-114.4V477.6L608 746.4ZM560 679.2L824 432.8H560V679.2ZM320 300H704V210.4H320V300ZM320 120.8H704V31.2H320V120.8Z"  horiz-adv-x="1024" vert-adv-y="1024"  />

      
      <glyph glyph-name="uniE137" unicode="&#xE137;" d="M894.4 716H129.6C110.4 716 96 701.6 96 682.4V-82.4C96-101.6 110.4-116 129.6-116H894.4C913.6-116 928-101.6 928-82.4V682.4C928 701.6 913.6 716 894.4 716ZM313.6 125.6C308.8 120.8 299.2 125.6 299.2 132V197.6C299.2 199.2 300.8 202.4 302.4 204L416 300 302.4 396C300.8 397.6 299.2 399.2 299.2 402.4V468C299.2 474.4 307.2 479.2 313.6 474.4L513.6 306.4C518.4 303.2 518.4 296.8 513.6 293.6L313.6 125.6ZM724.8 132C724.8 127.2 721.6 124 716.8 124H524.8C520 124 516.8 127.2 516.8 132V181.6C516.8 186.4 520 189.6 524.8 189.6H716.8C721.6 189.6 724.8 186.4 724.8 181.6V132Z"  horiz-adv-x="1024" vert-adv-y="1024"  />

      
      <glyph glyph-name="uniE151" unicode="&#xE151;" d="M907.2 380H819.2C808 380 800 391.2 804.8 402.4L936 703.2C944 724 928 748 905.6 748H334.4C321.6 748 310.4 741.6 305.6 728.8L89.6 200.8C80 180 94.4 156 118.4 156H316.8C339.2 156 353.6 133.6 347.2 112.8L265.6-128.8C260.8-143.2 278.4-154.4 289.6-143.2L923.2 338.4C939.2 352.8 929.6 380 907.2 380ZM347.2 285.6V349.6C347.2 351.2 348.8 354.4 350.4 356L460.8 448.8 350.4 541.6C348.8 543.2 347.2 544.8 347.2 548V612C347.2 618.4 355.2 623.2 360 618.4L553.6 456.8C556.8 453.6 556.8 447.2 553.6 444V444L360 280.8C355.2 276 347.2 279.2 347.2 285.6ZM718.4 279.2C718.4 274.4 715.2 271.2 710.4 271.2H529.6C524.8 271.2 521.6 274.4 521.6 279.2V325.6C521.6 330.4 524.8 333.6 529.6 333.6H710.4C715.2 333.6 718.4 330.4 718.4 325.6V279.2Z"  horiz-adv-x="1024" vert-adv-y="1024"  />

      
      <glyph glyph-name="uniE158" unicode="&#xE158;" d="M960 268C960 284 953.6 300 940.8 312.8L534.4 720.8C521.6 733.6 502.4 733.6 489.6 720.8L83.2 312.8C70.4 300 64 284 64 268H64V266.4C64 231.2 92.8 202.4 126.4 202.4H160V-103.2C160-120.8 174.4-135.2 192-135.2H448V92H576V-132H832C849.6-132 864-117.6 864-100V204H896C912 204 926.4 210.4 937.6 220H937.6L937.6 220C952 231.2 960 248.8 960 268L960 268 960 268Z"  horiz-adv-x="1024" vert-adv-y="1024"  />

      
      <glyph glyph-name="uniE147" unicode="&#xE147;" d="M832 204C867.2 204 896 175.2 896 140L896 140 896-20C896-55.2 867.2-84 832-84L832-84 608-84C572.8-84 544-55.2 544-20L544-20 544 140C544 175.2 572.8 204 608 204L608 204ZM416 332C451.2 332 480 303.2 480 268L480 268 480-20C480-55.2 451.2-84 416-84L416-84 192-84C156.8-84 128-55.2 128-20L128-20 128 268C128 303.2 156.8 332 192 332L192 332ZM832 684C867.2 684 896 655.2 896 620L896 620 896 332C896 296.8 867.2 268 832 268L832 268 608 268C572.8 268 544 296.8 544 332L544 332 544 620C544 655.2 572.8 684 608 684L608 684ZM416 684C451.2 684 480 655.2 480 620L480 620 480 460C480 424.8 451.2 396 416 396L416 396 192 396C156.8 396 128 424.8 128 460L128 460 128 620C128 655.2 156.8 684 192 684L192 684Z"  horiz-adv-x="1024" vert-adv-y="1024"  />

      
      <glyph glyph-name="uniE166" unicode="&#xE166;" d="M680 672.48A216.32 216.32 0 0 1 464 456.48V412H150.88A24.96 24.96 0 0 1 128 386.56V5.76A25.44 25.44 0 0 1 151.2-20H648.8A25.44 25.44 0 0 1 672 5.76V386.24C672 400.8 676.96 412 664.8 412H528V456.48A152 152 0 1 0 832 456.48V407.52H896V456.48A216.32 216.32 0 0 1 680 672.48ZM608 348V44H192V348H608ZM380.48 181.28A24.96 24.96 0 0 1 379.36 174.24V119.36A27.52 27.52 0 0 1 434.24 119.36V174.24A24.96 24.96 0 0 1 433.28 181.28 54.88 54.88 0 1 1 380.48 181.28Z"  horiz-adv-x="1024" vert-adv-y="1024"  />

      
      <glyph glyph-name="uniE18C" unicode="&#xE18C;" d="M768 300A256 256 0 0 0 512 44 256 256 0 0 0 256 300 256 256 0 0 0 768 300ZM512 492C620.8 492 704 408.8 704 300S620.8 108 512 108 320 191.2 320 300 403.2 492 512 492M512 556C371.2 556 256 440.8 256 300S371.2 44 512 44 768 159.2 768 300 652.8 556 512 556L512 556Z"  horiz-adv-x="1024" vert-adv-y="1024"  />

      
      <glyph glyph-name="uniE18F" unicode="&#xE18F;" d="M332.8 568.8C358.4 543.2 358.4 504.8 332.8 479.2 307.2 453.6 268.8 453.6 243.2 479.2L217.6 504.8 198.4 524C172.8 549.6 172.8 588 198.4 613.6S262.4 639.2 288 613.6L313.6 588 332.8 568.8ZM192 364C230.4 364 256 338.4 256 300S230.4 236 192 236H160 128C89.6 236 64 261.6 64 300S89.6 364 128 364H160 192ZM243.2 120.8C268.8 146.4 307.2 146.4 332.8 120.8 358.4 95.2 358.4 56.8 332.8 31.2L307.2 5.6 281.6-20C256-45.6 217.6-45.6 192-20S166.4 44 192 69.6L217.6 95.2 243.2 120.8ZM448-20C448 18.4 473.6 44 512 44S576 18.4 576-20V-52-84C576-122.4 550.4-148 512-148S448-122.4 448-84V-52-20ZM825.6-13.6C800-39.2 761.6-39.2 736-13.6L710.4 12 710.4 12 684.8 37.6C659.2 63.2 659.2 101.6 684.8 127.2S748.8 152.8 774.4 127.2L800 101.6 825.6 76 825.6 76C851.2 50.4 851.2 5.6 825.6-13.6ZM896 364L864 236H832C793.6 236 768 261.6 768 300S793.6 364 832 364H896ZM960 300C960 261.6 934.4 236 896 236H864L896 364C934.4 364 960 338.4 960 300ZM742.4 620C768 639.2 806.4 639.2 825.6 613.6 851.2 588 851.2 549.6 825.6 524L800 498.4 774.4 472.8C748.8 447.2 710.4 447.2 684.8 472.8S659.2 536.8 684.8 562.4M448 652L576 620C576 581.6 550.4 556 512 556S448 581.6 448 620V652ZM512 748C550.4 748 576 722.4 576 684V652H448V684C448 722.4 473.6 748 512 748ZM448 652H576V620H448V652Z"  horiz-adv-x="1024" vert-adv-y="1024"  />

      
      <glyph glyph-name="uniE18D" unicode="&#xE18D;" d="M768 300A256 256 0 0 0 512 44 256 256 0 0 0 256 300 256 256 0 0 0 768 300ZM512 492C620.8 492 704 408.8 704 300S620.8 108 512 108 320 191.2 320 300 403.2 492 512 492M512 556C371.2 556 256 440.8 256 300S371.2 44 512 44 768 159.2 768 300 652.8 556 512 556L512 556Z"  horiz-adv-x="1024" vert-adv-y="1024"  />

      
      <glyph glyph-name="uniE18E" unicode="&#xE18E;" d="M768 300C768 158.6 653.4 44 512 44S256 158.6 256 300 370.6 556 512 556 768 441.4 768 300ZM512 492C620.8 492 704 408.8 704 300S620.8 108 512 108 320 191.2 320 300 403.2 492 512 492M512 556C371.2 556 256 440.8 256 300S371.2 44 512 44 768 159.2 768 300 652.8 556 512 556L512 556Z"  horiz-adv-x="1024" vert-adv-y="1024"  />

      
      <glyph glyph-name="uniE1B8" unicode="&#xE1B8;" d="M535.4408 620C620.6342 620 683.2073 531.8689 742.4021 418.3266L961.408 418.3266 961.408 365.301 827.8893 365.301C789.9929 365.301 776.3326 350.6125 776.3326 350.6125L795.4277 311.541C809.2349 282.1639 823.3359 252.7869 837.7306 224.8787 846.8667 214.5854 860.2875 209.1519 874.0113 210.1902L956.4139 210.1902 956.4139 151.4361 810.5569 151.4361C558.208 151.4361 451.1287 98.8511 356.6814 52.4354 288.5267 18.7987 224.4847-12.9285 121.6651-12.9285L65.408-12.9285 65.408 45.8256 122.1057 45.8256C207.446 45.8256 259.2965 85.9252 324.9542 118.24 414.7011 162.4525 525.0119 216.6531 756.5031 223.9974 747.3962 242.5049 738.4362 261.1593 729.6231 279.3731 728.251 282.2207 726.8747 285.0768 725.4943 287.9397L717.1637 305.1825C714.3711 310.947 711.5631 316.7235 708.7408 322.4971L700.2324 339.7942C647.5129 446.2222 590.2824 546.5574 535.4408 546.5574 472.5739 546.5574 437.1746 489.1252 386.3523 394.2374 330.9765 291.2708 261.9405 163.04 103.8919 163.04L65.408 163.04 65.408 221.7941 103.5982 221.7941C185.1195 221.7941 234.0323 284.2203 274.7195 347.381 274.7195 347.381 264.1437 364.8603 212.2932 364.8603L65.408 364.8603 65.408 420.8236 317.61 420.8236 322.0165 429.0492C323.3424 431.5269 324.6694 434.0065 325.9987 436.486L334.01 451.3492C380.9977 537.8831 433.2976 620 535.4408 620ZM412.129 318.2848L412.129 283.568C412.129 271.7006 418.7232 264.9033 430.1564 264.9033 441.5896 264.9033 447.8993 271.3906 447.8993 283.1473L447.8281 318.2848 457.3162 318.2848 457.3162 283.6566C457.3162 266.6967 446.7132 256.5784 429.8955 256.5784 413.0778 256.5784 402.6409 266.7853 402.6409 283.1473L402.6409 318.2848 412.129 318.2848ZM547.0265 319.0819C555.3482 319.3129 563.4673 316.6632 569.8218 311.6426L570.6994 310.9783 565.1014 304.159 564.1526 304.8675C559.3489 308.8002 553.179 310.9717 546.7893 310.9783 539.6732 310.9783 534.692 307.5465 534.692 302.6534 534.692 297.7603 537.1826 294.882 550.7981 292.1587 565.7656 289.1254 572.1464 283.8337 572.1227 274.3574 572.1227 263.907 562.848 256.6448 549.5409 256.6448 539.7227 256.5314 530.2438 259.9943 523.1164 266.2982L522.2625 267.0067 528.1689 273.5382 529.0702 272.7855C535.8068 266.9846 541.8081 264.7705 549.8018 264.7705 557.3686 264.7705 562.6345 268.4016 562.6345 273.6268 562.6345 278.4535 560.4285 281.1768 547.24 283.8559 534.0515 286.5349 525.2513 290.6309 525.2513 301.8342 525.2513 311.9082 534.4073 319.0819 547.0265 319.0819ZM481.1552 318.2848L481.1552 265.8332 516.4747 265.8332 516.4747 257.5304 471.7382 257.5304 471.7382 318.2848 481.1552 318.2848ZM614.6769 318.7055L644.3274 257.5304 634.1513 257.5304 626.798 273.029 594.1589 273.029 586.7107 257.5304 576.8904 257.5304 606.5409 318.7055 614.6769 318.7055ZM681.8767 318.3069C688.7272 318.618 695.4336 316.3989 700.5446 312.1297 703.9563 308.8331 705.8177 304.4019 705.7156 299.8194 705.7156 290.7195 699.7143 284.0773 689.5383 281.8632L709.2025 257.5526 697.5795 257.5526 679.386 280.3133 663.2088 280.3133 663.2088 257.5304 653.7206 257.5304 653.7206 318.3069ZM368.4836 318.2848C383.4511 318.2848 393.129 310.5798 393.2002 298.6238 393.2002 284.4758 380.2489 278.2099 367.3924 278.2099L353.3263 278.2099 353.3263 257.619 343.8381 257.619 343.8381 286.402 367.5585 286.402C377.3075 286.402 383.6171 291.0295 383.6171 298.2031 383.6171 305.7752 377.9005 310.0041 367.938 310.0041L343.8381 310.0041 343.8381 318.2848ZM610.5259 307.1923L597.9778 281.0661 623.0028 281.0661 610.5259 307.1923ZM681.3074 310.0041L663.1139 310.0041 663.1139 288.5054 681.2362 288.3062C690.3211 288.3062 696.2037 292.5572 696.2037 299.3766 696.2037 306.1959 690.7955 310.0041 681.3074 310.0041Z"  horiz-adv-x="1024" vert-adv-y="1024"  />

      
      <glyph glyph-name="uniE187" unicode="&#xE187;" d="M1024 300A512 512 0 0 0 512-212 512 512 0 0 0 0 300 512 512 0 0 0 1024 300ZM787.6923 300A275.6923 275.6923 0 0 0 512 24.3077 275.6923 275.6923 0 0 0 236.3077 300 275.6923 275.6923 0 0 0 787.6923 300Z"  horiz-adv-x="1024" vert-adv-y="1024"  />

      
      <glyph glyph-name="uniE188" unicode="&#xE188;" d="M1024 300A512 512 0 0 0 512-212 512 512 0 0 0 0 300 512 512 0 0 0 1024 300ZM787.6923 300A275.6923 275.6923 0 0 0 512 24.3077 275.6923 275.6923 0 0 0 236.3077 300 275.6923 275.6923 0 0 0 787.6923 300Z"  horiz-adv-x="1024" vert-adv-y="1024"  />

      
      <glyph glyph-name="uniE189" unicode="&#xE189;" d="M1024 300A512 512 0 0 0 512-212 512 512 0 0 0 0 300 512 512 0 0 0 1024 300ZM787.6923 300A275.6923 275.6923 0 0 0 512 24.3077 275.6923 275.6923 0 0 0 236.3077 300 275.6923 275.6923 0 0 0 787.6923 300Z"  horiz-adv-x="1024" vert-adv-y="1024"  />

      
      <glyph glyph-name="uniE139" unicode="&#xE139;" d="M256 492C265.6 492 272 498.4 272 508V604C272 613.6 265.6 620 256 620H128 96C78.4 620 64 605.6 64 588V556 44 12C64-5.6 78.4-20 96-20H128 256C265.6-20 272-13.6 272-4V92C272 101.6 265.6 108 256 108H192V492H256ZM768 492C758.4 492 752 498.4 752 508V604C752 613.6 758.4 620 768 620H896 928C945.6 620 960 605.6 960 588V556 44 12C960-5.6 945.6-20 928-20H896 768C758.4-20 752-13.6 752-4V92C752 101.6 758.4 108 768 108H832V492H768ZM433.6-95.2L342.4-64.8C334.4-61.6 329.6-53.6 332.8-44L572.8 685.6C576 693.6 584 698.4 593.6 695.2L684.8 664.8C692.8 661.6 697.6 653.6 694.4 644L454.4-85.6C449.6-93.6 441.6-98.4 433.6-95.2Z"  horiz-adv-x="1024" vert-adv-y="1024"  />

      
      <glyph glyph-name="uniE1C5" unicode="&#xE1C5;" d="M512 428A128 128 0 1 1 640 300 128 128 0 0 1 512 428ZM512 236A64 64 0 1 0 576 300 64 64 0 0 0 512 236ZM512 572C264.64 572 64 300 64 300S264.64 28 512 28 960 300 960 300 759.36 572 512 572ZM512 92C352 92 208 231.04 147.04 300 208 369.12 352 508 512 508S816 368.96 876.96 300C816 230.88 672 92 512 92Z"  horiz-adv-x="1024" vert-adv-y="1024"  />

      
      <glyph glyph-name="uniE18A" unicode="&#xE18A;" d="M704 300A192 192 0 0 0 512 108 192 192 0 0 0 320 300 192 192 0 0 0 704 300ZM512 44C370.8 44 256 158.8 256 300 256 441.2 370.8 556 512 556 653.2 556 768 441.2 768 300 768 158.8 653.2 44 512 44ZM512 492C406.1 492 320 405.9 320 300S406.1 108 512 108 704 194.1 704 300 617.9 492 512 492Z"  horiz-adv-x="1024" vert-adv-y="1024"  />

      
      <glyph glyph-name="uniE138" unicode="&#xE138;" d="M233.6 554.4C228.8 559.2 219.2 554.4 219.2 548V482.4C219.2 479.2 220.8 477.6 222.4 476L336 380 222.4 284C220.8 282.4 219.2 280.8 219.2 277.6V212C219.2 205.6 227.2 200.8 233.6 205.6L433.6 373.6C438.4 376.8 438.4 383.2 433.6 386.4L233.6 554.4ZM636.8 271.2H444.8C440 271.2 436.8 268 436.8 263.2V213.6C436.8 208.8 440 205.6 444.8 205.6H636.8C641.6 205.6 644.8 208.8 644.8 213.6V263.2C644.8 266.4 640 271.2 636.8 271.2ZM784 748C801.6 748 816 733.6 816 716V28C816 10.4 801.6-4 784-4H96C78.4-4 64 10.4 64 28V716C64 733.6 78.4 748 96 748H784ZM928 620C945.6 620 960 605.6 960 588V-116C960-133.6 945.6-148 928-148H224C206.4-148 192-133.6 192-116V-68H848C865.6-68 880-53.6 880-36V620H928Z"  horiz-adv-x="1024" vert-adv-y="1024"  />

      
      <glyph glyph-name="uniE1CB" unicode="&#xE1CB;" d="M898.24 312.96H883.36V492L675.36 700H200A29.92 29.92 0 0 1 170.24 671.68V312.96H125.76A29.76 29.76 0 0 1 96 283.2V45.12A29.76 29.76 0 0 1 125.76 15.36H170.24V-103.68A28.64 28.64 0 0 1 199.04-132H853.76A29.6 29.6 0 0 1 883.36-102.24V15.36H898.24A29.76 29.76 0 0 1 928 45.12V283.2A29.76 29.76 0 0 1 898.24 312.96ZM824-72.48H229.76V15.36H824ZM348 138.24A355.04 355.04 0 0 1 308 151.84 307.36 307.36 0 0 0 260.8 169.12 45.44 45.44 0 0 0 237.12 210.56 48.96 48.96 0 0 0 260.16 253.6 92.8 92.8 0 0 0 314.88 268 93.92 93.92 0 0 0 371.68 253.12 66.56 66.56 0 0 0 396.48 204H363.04A44.8 44.8 0 0 1 347.04 231.36 56.16 56.16 0 0 1 312.96 239.68 61.76 61.76 0 0 1 283.36 234.24 21.92 21.92 0 0 1 270.72 212.96 23.36 23.36 0 0 1 285.12 191.84 304 304 0 0 1 320.16 179.2 316.48 316.48 0 0 0 374.08 159.04 48.96 48.96 0 0 0 400.8 114.72 51.84 51.84 0 0 0 379.2 70.88 102.72 102.72 0 0 0 318.24 54.88 103.36 103.36 0 0 0 258.88 69.6 70.24 70.24 0 0 0 230.56 126.88H264A48.96 48.96 0 0 1 280 93.44 64 64 0 0 1 317.44 84.64 74.56 74.56 0 0 1 354.08 92 23.52 23.52 0 0 1 368 112.32 29.12 29.12 0 0 1 348 138.24ZM620 55.36L598.08 36.32C590.24 47.52 582.08 58.24 575.36 68.32A106.88 106.88 0 0 0 521.44 55.04 94.56 94.56 0 0 0 447.04 85.6 110.4 110.4 0 0 0 421.44 161.6 112 112 0 0 0 447.04 238.08 93.12 93.12 0 0 0 521.12 268 93.92 93.92 0 0 0 595.36 237.44 110.56 110.56 0 0 0 621.28 160.8 112 112 0 0 0 596.8 85.92C604.32 76 612.16 66.24 619.68 55.36ZM797.92 87.36V58.56H653.92V264.48H686.4V87.52ZM824 312.96H229.76V640.48H586.24V432.48A29.76 29.76 0 0 1 616 402.4H824ZM645.76 463.36V640.48L824 461.92ZM521.12 238.88A60.64 60.64 0 0 1 471.52 217.28 86.24 86.24 0 0 1 455.52 161.28 85.44 85.44 0 0 1 471.52 105.76 60.8 60.8 0 0 1 521.12 84.48 70.24 70.24 0 0 1 556 92C545.6 104.64 535.84 115.84 526.24 125.92L545.92 144.96C556 134.4 566.08 123.04 575.84 111.52A96 96 0 0 1 587.36 160.48 88.32 88.32 0 0 1 570.4 217.6 60.64 60.64 0 0 1 521.12 238.88Z"  horiz-adv-x="1024" vert-adv-y="1024"  />

      
      <glyph glyph-name="uniE156" unicode="&#xE156;" d="M865.28 685.28H158.72A30.72 30.72 0 0 1 128 654.56V-52A30.72 30.72 0 0 1 158.72-82.72H865.28A30.72 30.72 0 0 1 896-52V654.56A30.72 30.72 0 0 1 865.28 685.28ZM704 60H320V124H704ZM540 211.84H484L315.2 520.8 371.36 551.36 512 293.92 652.64 551.36 708.8 520.8Z"  horiz-adv-x="1024" vert-adv-y="1024"  />

      
      <glyph glyph-name="uniE103" unicode="&#xE103;" d="M864 684H288C270.4 684 256 669.6 256 652V556H160C142.4 556 128 541.6 128 524V-52C128-69.6 142.4-84 160-84H736C753.6-84 768-69.6 768-52V44H864C881.6 44 896 58.4 896 76V652C896 669.6 881.6 684 864 684ZM704 108V44-20H192V492H256 320 704V108ZM832 108H768V524C768 541.6 753.6 556 736 556H320V620H832V108ZM275.2 392.8H611.2V328.8H275.2ZM272 268H608V204H272ZM272 140H608V76H272Z"  horiz-adv-x="1024" vert-adv-y="1024"  />

      
      <glyph glyph-name="uniE101" unicode="&#xE101;" d="M795.52 238.08L795.52 334.08 699.52 334.08 699.52 238.08 603.52 238.08 603.52 142.08 699.52 142.08 699.52 46.08 795.52 46.08 795.52 142.08 891.52 142.08 891.52 238.08 795.52 238.08ZM431.04 376C595.84 376 729.6 425.12 729.6 486.08V573.92C729.6 634.88 595.84 684 431.04 684S132.48 634.88 132.48 573.92V486.08C132.48 425.44 265.92 376 431.04 376ZM431.04 178.08C458.08 177.28 477.92 178.08 491.68 178.08A238.4 238.4 0 0 0 539.68 317.12 769.44 769.44 0 0 0 431.36 309.6C266.56 309.6 132.8 358.72 132.8 419.68V287.84C132.48 227.52 265.92 178.08 431.04 178.08ZM499.2 115.04C474.88 113.44 446.88 112 431.04 112 266.24 112 132.8 161.12 132.8 222.08V90.08C132.8 29.44 266.24-20 432-20A904.16 904.16 0 0 1 578.08-9.76 238.88 238.88 0 0 0 499.2 115.04Z"  horiz-adv-x="1024" vert-adv-y="1024"  />

      
      <glyph glyph-name="uniE102" unicode="&#xE102;" d="M512 572C264.64 572 64 300 64 300S264.64 28 512 28 960 300 960 300 759.36 572 512 572ZM512 188A112 112 0 1 0 624 300 112 112 0 0 0 512 188Z"  horiz-adv-x="1024" vert-adv-y="1024"  />

      
      <glyph glyph-name="uniE104" unicode="&#xE104;" d="M863.5 300.5C863.5 321.5 861.7 342 858.2 361.9L939.9 433.7C931.9 459.6 921.5 484.5 909.2 508.1L890.6 540.2C876.3 562.8 860 584 842 603.7L739.2 569C707.6 595.9 671.1 617.2 631.3 631.6L610 738.1C587.8 743.1 564.9 746.5 541.6 748H481.4C458.4 746.5 436 743.2 414.1 738.4L392.8 632C352.7 617.6 316 596.2 284.1 569.2L181.3 604C166.5 588 153 570.8 140.6 552.8L107.1 494.8C97.8 475.4 89.8 455.3 83.3 434.5L164.9 362.8C161.3 342.6 159.4 321.8 159.4 300.6 159.4 279.1 161.3 258 165 237.6L83.5 165.9C90.7 142.9 99.8 120.7 110.4 99.5L136.4 54.5C150 33.9 165.2 14.4 181.9-3.7L284.9 31.1C316.5 4.5 352.9-16.6 392.5-30.9L413.8-137.3C445.2-144.3 477.9-148 511.4-148 545.3-148 578.3-144.2 610.1-137.1L631.4-30.5C670.7-16.2 706.8 4.8 738.2 31.3L841.1-3.5C885.5 44.6 919.5 102.5 939.5 166.5L858 238.2C861.6 258.4 863.5 279.2 863.5 300.5ZM511.5 140.5C423.1 140.5 351.5 212.1 351.5 300.5S423.1 460.5 511.5 460.5 671.5 388.9 671.5 300.5 599.9 140.5 511.5 140.5Z"  horiz-adv-x="1024" vert-adv-y="1024"  />

      
      <glyph glyph-name="uniE105" unicode="&#xE105;" d="M176 252H416A48 48 0 0 0 464 204V-36A48 48 0 0 0 416-84H176A48 48 0 0 0 128-36V204A48 48 0 0 0 176 252ZM176 684H416A48 48 0 0 0 464 636V396A48 48 0 0 0 416 348H176A48 48 0 0 0 128 396V636A48 48 0 0 0 176 684ZM608 252H848A48 48 0 0 0 896 204V-36A48 48 0 0 0 848-84H608A48 48 0 0 0 560-36V204A48 48 0 0 0 608 252ZM848 684H608A51.68 51.68 0 0 1 560 636V396A51.68 51.68 0 0 1 608 348H848A51.68 51.68 0 0 1 896 396V636A51.68 51.68 0 0 1 848 684ZM848 420A22.72 22.72 0 0 0 824 396H632A22.72 22.72 0 0 0 608 420V612A22.72 22.72 0 0 0 632 636H824A22.72 22.72 0 0 0 848 612Z"  horiz-adv-x="1024" vert-adv-y="1024"  />

      
      <glyph glyph-name="uniE106" unicode="&#xE106;" d="M629.8413 753.1606L175.7054 753.1606C157.7518 753.1606 143.1975 738.6063 143.1975 720.6527L143.1975-120.6527C143.1975-138.6063 157.7518-153.1606 175.7054-153.1606L889.9048-153.1606C907.8584-153.1606 922.4127-138.6063 922.4127-120.6527L922.4127 481.0692 629.8413 753.1606ZM581.0794 685.219L849.2698 435.7206 581.0794 435.7206 581.0794 685.219ZM337.2698 300L727.3651 300 727.3651 208.9778 337.2698 208.9778 337.2698 300ZM337.2698 118.6057L727.3651 118.6057 727.3651 27.9086 337.2698 27.9086 337.2698 118.6057Z"  horiz-adv-x="1080" vert-adv-y="1024"  />

      
      <glyph glyph-name="uniE108" unicode="&#xE108;" d="M128 26.4H896V-84H128ZM320 108H209.6V218.4L593.6 602.4 704 492 320 108ZM622.3231 629.5011L676.628 683.8078 785.2415 575.1981 730.9366 520.8914Z"  horiz-adv-x="1024" vert-adv-y="1024"  />

      
      <glyph glyph-name="uniE1A8" unicode="&#xE1A8;" d="M320 571.68A55.36 55.36 0 1 1 240.32 492L278.72 453.6A55.36 55.36 0 0 1 357.12 532ZM292.48 300A55.04 55.04 0 0 1 237.76 354.72H182.72A54.72 54.72 0 1 1 182.72 245.28H237.76A55.04 55.04 0 0 1 292.48 300ZM278.72 145.12L240.32 108A55.36 55.36 0 1 1 320 28.32L358.4 66.72A55.36 55.36 0 1 1 280 145.12ZM512 80.48A55.04 55.04 0 0 1 457.28 25.76V-29.28A54.72 54.72 0 0 1 566.72-29.28V25.76A55.04 55.04 0 0 1 512 80.48ZM745.28 145.12A55.36 55.36 0 1 1 666.88 66.72L705.28 28.32A55.36 55.36 0 1 1 783.68 108ZM841.28 354.72H786.24A54.72 54.72 0 0 1 786.24 245.28H841.28A54.72 54.72 0 0 1 841.28 354.72ZM745.28 454.88L783.68 493.28A55.36 55.36 0 1 1 704 571.68L665.6 533.28A55.36 55.36 0 1 1 744 454.88ZM512 684A55.04 55.04 0 0 1 457.28 629.28V574.24A54.72 54.72 0 0 1 566.72 574.24V629.28A55.04 55.04 0 0 1 512 684Z"  horiz-adv-x="1024" vert-adv-y="1024"  />

      
      <glyph glyph-name="uniE109" unicode="&#xE109;" d="M512 748C264 748 64 548 64 300 64 242.4 75.2 186.4 96 133.6V-84C96-101.6 110.4-116 128-116H345.6C576-207.2 836.8-96.8 928 133.6S908.8 624.8 678.4 716C625.6 736.8 569.6 748 512 748ZM500.8 90.4C473.6 90.4 452.8 111.2 452.8 138.4S473.6 186.4 500.8 186.4C528 186.4 548.8 165.6 548.8 138.4S528 90.4 500.8 90.4ZM587.2 304.8C550.4 284 539.2 269.6 539.2 242.4V228H464V244C460.8 288.8 475.2 314.4 515.2 336.8 552 359.2 563.2 372 563.2 397.6S542.4 442.4 510.4 442.4C481.6 444 457.6 423.2 454.4 394.4 454.4 392.8 454.4 392.8 454.4 391.2H377.6C379.2 461.6 427.2 509.6 513.6 509.6 593.6 509.6 646.4 464.8 646.4 399.2 648 357.6 627.2 327.2 587.2 304.8Z"  horiz-adv-x="1024" vert-adv-y="1024"  />

      
      <glyph glyph-name="uniE10B" unicode="&#xE10B;" d="M864 396H336V444A176 176 0 0 0 647.04 556L647.04 556A32 32 0 0 1 666.88 548.64 32 32 0 0 1 698.88 580.64 32 32 0 0 1 691.84 599.52L691.84 599.52 688.96 602.08 688.96 602.08A230.08 230.08 0 0 1 512 684 240 240 0 0 1 272 444V396H160A32 32 0 0 1 128 367.84V-55.2A32 32 0 0 1 160-84H864A32 32 0 0 1 896-55.2V367.52A32 32 0 0 1 864 396ZM832-20H192V332H832ZM480 164A23.36 23.36 0 0 1 480 156V92A32 32 0 0 1 544 92V156A23.36 23.36 0 0 1 544 164 64 64 0 1 1 457.28 189.28 62.08 62.08 0 0 1 480 164Z"  horiz-adv-x="1024" vert-adv-y="1024"  />

      
      <glyph glyph-name="uniE10C" unicode="&#xE10C;" d="M864 396H752V444A240 240 0 0 1 272 444V396H160A30.4 30.4 0 0 1 128 367.84V-55.36A30.72 30.72 0 0 1 160-84H864A30.72 30.72 0 0 1 896-55.36V367.36A30.72 30.72 0 0 1 864 396ZM336 444A176 176 0 0 0 688 444V396H336ZM552 151.04V69.28A40 40 0 0 0 472 69.28V151.04A80 80 0 1 0 552 151.04Z"  horiz-adv-x="1024" vert-adv-y="1024"  />

      
      <glyph glyph-name="uniE10F" unicode="&#xE10F;" d="M288 108C305.6 108 320 93.6 320 76L320 76 320-84 256-84 256 44 128 44 128 108ZM896 108L896 44 768 44 768-84 704-84 704 76C704 93.6 718.4 108 736 108L736 108 896 108ZM320 684L320 524C320 506.4 305.6 492 288 492L288 492 128 492 128 556 256 556 256 684 320 684ZM768 684L768 556 896 556 896 492 736 492C718.4 492 704 506.4 704 524L704 524 704 684 768 684Z"  horiz-adv-x="1024" vert-adv-y="1024"  />

      
      <glyph glyph-name="uniE110" unicode="&#xE110;" d="M192 108L192-20 320-20 320-84 160-84C142.4-84 128-69.6 128-52L128-52 128 108 192 108ZM896 108L896-52C896-69.6 881.6-84 864-84L864-84 704-84 704-20 832-20 832 108 896 108ZM320 684L320 620 192 620 192 492 128 492 128 652C128 669.6 142.4 684 160 684L160 684 320 684ZM864 684C881.6 684 896 669.6 896 652L896 652 896 492 832 492 832 620 704 620 704 684Z"  horiz-adv-x="1024" vert-adv-y="1024"  />

      
      <glyph glyph-name="uniE111" unicode="&#xE111;" d="M512 748C264 748 64 548 64 300S264-148 512-148 960 52 960 300 760 748 512 748ZM736 268H288V332H736V268Z"  horiz-adv-x="1024" vert-adv-y="1024"  />

      
      <glyph glyph-name="uniE112" unicode="&#xE112;" d="M512 748C264 748 64 548 64 300S264-148 512-148 960 52 960 300 760 748 512 748ZM736 268H544V76H480V268H288V332H480V524H544V332H736V268Z"  horiz-adv-x="1024" vert-adv-y="1024"  />

      
      <glyph glyph-name="uniE116" unicode="&#xE116;" d="M896 364L576 364 576 684 448 684 448 364 128 364 128 236 448 236 448-84 576-84 576 236 896 236Z"  horiz-adv-x="1024" vert-adv-y="1024"  />

      
      <glyph glyph-name="uniE117" unicode="&#xE117;" d="M512 748C264 748 64 548 64 300S264-148 512-148 960 52 960 300 760 748 512 748ZM692.8 164L648 119.2 512 255.2 376 119.2 331.2 164 467.2 300 331.2 436 376 480.8 512 344.8 648 480.8 692.8 436 556.8 300 692.8 164Z"  horiz-adv-x="1024" vert-adv-y="1024"  />

      
      <glyph glyph-name="uniE118" unicode="&#xE118;" d="M814.4 570.4C793.6 570.4 780.8 557.6 780.8 536.8V503.2C747.2 551.2 699.2 588 646.4 608.8 478.4 684 278.4 605.6 204.8 436S208 68 376-7.2 744-4 817.6 165.6H814.4C814.4 186.4 801.6 199.2 780.8 199.2 760 199.2 747.2 186.4 747.2 165.6H744C713.6 114.4 670.4 74.4 612.8 50.4 475.2-7.2 320 60 262.4 199.2S272 496.8 411.2 551.2C536 605.6 676.8 551.2 745.6 436H681.6C660.8 436 648 423.2 648 402.4 648 381.6 660.8 368.8 681.6 368.8H816C836.8 368.8 849.6 381.6 849.6 402.4V538.4C848 557.6 835.2 570.4 814.4 570.4Z"  horiz-adv-x="1024" vert-adv-y="1024"  />

      
      <glyph glyph-name="uniE119" unicode="&#xE119;" d="M448 556C448 591.2 476.8 620 512 620S576 591.2 576 556C576 520.8 547.2 492 512 492S448 520.8 448 556ZM512 364C476.8 364 448 335.2 448 300S476.8 236 512 236 576 264.8 576 300C576 335.2 547.2 364 512 364ZM512 108C476.8 108 448 79.2 448 44S476.8-20 512-20 576 8.8 576 44C576 79.2 547.2 108 512 108Z"  horiz-adv-x="1024" vert-adv-y="1024"  />

      
      <glyph glyph-name="uniE11E" unicode="&#xE11E;" d="M736 454.56L288 454.56 512 145.44Z"  horiz-adv-x="1024" vert-adv-y="1024"  />

      
      <glyph glyph-name="uniE11F" unicode="&#xE11F;" d="M512 748C264 748 64 548 64 300S264-148 512-148 960 52 960 300 760 748 512 748ZM560 556C587.2 556 608 535.2 608 508S587.2 460 560 460 512 480.8 512 508 532.8 556 560 556ZM598.4 80.8C576 58.4 548.8 42.4 518.4 36 499.2 31.2 478.4 32.8 460.8 40.8 444.8 50.4 435.2 64.8 432 82.4 428.8 98.4 440 146.4 462.4 223.2 473.6 266.4 483.2 298.4 488 317.6 492.8 332 494.4 344.8 492.8 359.2 491.2 367.2 484.8 370.4 473.6 368.8 457.6 362.4 443.2 352.8 433.6 340 419.2 322.4 393.6 344.8 417.6 367.2 438.4 388 465.6 402.4 494.4 408.8 512 413.6 532.8 413.6 548.8 407.2 561.6 400.8 571.2 388 574.4 373.6 579.2 354.4 561.6 277.6 521.6 141.6 516.8 128.8 513.6 114.4 515.2 100 518.4 87.2 526.4 80.8 540.8 84 556.8 87.2 571.2 96.8 580.8 109.6 595.2 124 624 106.4 598.4 80.8Z"  horiz-adv-x="1024" vert-adv-y="1024"  />

      
      <glyph glyph-name="uniE120" unicode="&#xE120;" d="M512 748C264 748 64 548 64 300S264-148 512-148 960 52 960 300 760 748 512 748ZM512-84C299.2-84 128 87.2 128 300S299.2 684 512 684 896 512.8 896 300 724.8-84 512-84ZM494.4 408.8C465.6 402.4 438.4 388 417.6 367.2 393.6 344.8 419.2 322.4 433.6 340 443.2 352.8 457.6 362.4 473.6 368.8 484.8 370.4 491.2 367.2 492.8 359.2 494.4 344.8 492.8 332 488 317.6 483.2 298.4 473.6 266.4 462.4 223.2 440 146.4 428.8 98.4 432 82.4 435.2 64.8 444.8 50.4 460.8 40.8 478.4 32.8 499.2 31.2 518.4 36 548.8 42.4 576 58.4 598.4 80.8 624 106.4 595.2 124 580.8 109.6 571.2 96.8 556.8 87.2 540.8 84 526.4 80.8 518.4 87.2 515.2 100 513.6 114.4 516.8 128.8 521.6 141.6 561.6 277.6 579.2 354.4 574.4 373.6 571.2 388 561.6 400.8 548.8 407.2 532.8 413.6 512 413.6 494.4 408.8ZM608 508A48 48 0 0 0 560 460 48 48 0 0 0 512 508 48 48 0 0 0 608 508Z"  horiz-adv-x="1024" vert-adv-y="1024"  />

      
      <glyph glyph-name="uniE121" unicode="&#xE121;" d="M832 175.2L763.2 108 512 356 260.8 108 192 175.2 512 492 832 175.2Z"  horiz-adv-x="1024" vert-adv-y="1024"  />

      
      <glyph glyph-name="uniE123" unicode="&#xE123;" d="M192 424.8L260.8 492 512 244 763.2 492 832 424.8 512 108 192 424.8Z"  horiz-adv-x="1024" vert-adv-y="1024"  />

      
      <glyph glyph-name="uniE122" unicode="&#xE122;" d="M512-52L444.8 15.2 240 220 307.2 287.2 464 132 464 652 560 652 560 132 716.8 287.2 784 220 784 220 580.8 15.2Z"  horiz-adv-x="1024" vert-adv-y="1024"  />

      
      <glyph glyph-name="uniE124" unicode="&#xE124;" d="M512 652L444.8 584.8 240 380 307.2 312.8 464 468 464-52 560-52 560 468 716.8 312.8 784 380 784 380 580.8 584.8Z"  horiz-adv-x="1024" vert-adv-y="1024"  />

      
      <glyph glyph-name="uniE125" unicode="&#xE125;" d="M387.2-20L320 48.8 568 300 320 551.2 387.2 620 704 300 387.2-20Z"  horiz-adv-x="1024" vert-adv-y="1024"  />

      
      <glyph glyph-name="uniE126" unicode="&#xE126;" d="M889.6 322.4L844.8 367.2 662.4 549.6C649.6 562.4 630.4 562.4 617.6 549.6L572.8 504.8C560 492 560 472.8 572.8 460L667.2 365.6H160C142.4 365.6 128 351.2 128 333.6V269.6C128 252 142.4 237.6 160 237.6H667.2L572.8 143.2C560 130.4 560 111.2 572.8 98.4L617.6 53.6C630.4 40.8 649.6 40.8 662.4 53.6L843.2 234.4 888 279.2C900.8 290.4 900.8 309.6 889.6 322.4Z"  horiz-adv-x="1024" vert-adv-y="1024"  />

      
      <glyph glyph-name="uniE127" unicode="&#xE127;" d="M144 300L214.4 229.6 428.8 15.2 499.2 87.2 336 250.4 880 250.4 880 349.6 336 349.6 499.2 512.8 428.8 584.8 428.8 584.8 214.4 370.4Z"  horiz-adv-x="1024" vert-adv-y="1024"  />

      
      <glyph glyph-name="uniE128" unicode="&#xE128;" d="M636.2353 329.0909C638.1176 337.116 645.6471 341.1285 653.1765 339.1223 664.4706 335.1097 675.7647 329.0909 685.1765 321.0658 687.0588 319.0596 688.9412 315.047 692.7059 313.0408 698.3529 313.0408 702.1176 311.0345 707.7647 311.0345 717.1765 309.0282 724.7059 305.0157 732.2353 298.9969 764.2353 274.9216 786.8235 242.8213 801.8824 204.7022 805.6471 194.6708 807.5294 186.6458 809.4118 176.6144 813.1765 162.5705 818.8235 148.5266 822.5882 134.4828 822.5882 128.4639 826.3529 122.4451 828.2353 116.4263 830.1176 112.4138 833.8824 112.4138 835.7647 110.4075 841.4118 106.395 848.9412 102.3824 854.5882 96.3636 865.8824 86.3323 875.2941 76.3009 884.7059 64.2633 888.4706 60.2508 890.3529 54.232 894.1176 50.2194L894.1176 50.2194 894.1176 48.2132C890.3529 48.2132 888.4706 46.2069 884.7059 46.2069 882.8235 45.7053 881.0588 45.4545 879.3529 45.3292L869.3529 45.0784 869.3529 45.0784 864 44.2006C860.2353 42.1944 856.4706 42.1944 850.8235 42.1944 852.7059 34.1693 865.8824 26.1442 871.5294 20.1254 879.0588 12.1003 884.7059 4.0752 890.3529-5.9561L890.3529-5.9561 896-13.9812C896-15.9875 896-20 894.1176-20 880.9412-15.9875 867.7647-11.9749 854.5882-5.9561 841.4118 0.0627 813.1765 14.1066 813.1765 14.1066 755.5375 43.9931 749.4674 50.52 743.753 56.431L741.5267 58.6631C740.9913 59.1725 740.4138 59.6973 739.7647 60.2508 736 66.2696 730.3529 70.2821 726.5882 76.3009 717.1765 86.3323 709.6471 98.3699 704 110.4075 702.1176 116.4263 700.2353 124.4514 698.3529 130.4702 698.3529 128.4639 696.4706 126.4577 696.4706 124.4514 692.7059 112.4138 692.7059 100.3762 683.2941 96.3636 673.8824 92.3511 666.3529 106.395 664.4706 112.4138 656.9412 138.4953 656.9412 166.5831 666.3529 190.6583 666.3529 196.6771 670.1176 200.6897 672 206.7085 672 208.7147 670.1176 212.7273 668.2353 214.7335 666.3529 218.7461 664.4706 222.7586 662.5882 228.7774 658.8235 238.8088 656.9412 250.8464 655.0588 260.8777 655.0588 264.8903 655.0588 268.9028 653.1765 272.9154 651.2941 278.9342 649.4118 284.953 645.6471 290.9718 641.8824 298.9969 628.7059 315.047 636.2353 329.0909ZM146.8235 206.7085C190.1176 162.5705 312.4706 130.4702 457.4118 130.4702 510.1176 130.4702 560.9412 134.4828 604.2353 142.5078 604.2353 127.4608 606.8497 112.4138 610.9891 98.5278L613.6471 90.3448 613.6471 86.3323C633.4118 42.2856 665.1823 34.7993 679.4898 34.2098L681.4118 34.1693 687.0588 34.1693C692.7059 28.1505 696.4706 22.1317 702.1176 18.1191 643.7647-5.9561 555.2941-20 457.4118-20 280.2491-20 135.6532 28.2091 130.0508 88.7068L129.8824 92.3511 129.8824 198.6834C129.8824 208.7147 139.2941 212.7273 146.8235 206.7085ZM144.9412 415.3605C188.2353 371.2226 310.5882 339.1223 455.5294 339.1223 500.7059 339.1223 542.1176 341.1285 581.6471 347.1473 571.0173 311.2705 587.0662 280.7252 593.699 267.22L594.8235 264.8903 596.7059 262.884 596.7059 258.8715C596.7059 256.8652 598.5882 256.8652 598.5882 254.8589 598.5882 252.8527 600.4706 248.8401 600.4706 246.8339 604.2353 232.79 606.1176 220.7524 609.8824 208.7147 609.8824 207.3772 610.719 206.0397 611.2767 204.7022L611.7647 202.6959 611.7647 200.6897C566.5882 190.6583 513.8824 186.6458 457.4118 186.6458 278.3348 186.6458 133.6603 234.892 128.1621 295.4224L128 298.9969 128 407.3354C128 417.3668 137.4118 421.3793 144.9412 415.3605ZM700.2353 296.9906C692.7059 298.9969 685.1765 292.9781 690.8235 286.9592 694.5882 280.9404 698.3529 270.9091 700.2353 262.884 709.6471 264.8903 713.4118 276.9279 711.5294 286.9592 711.5294 288.9655 709.6471 288.9655 709.6471 290.9718 707.7647 292.9781 705.8824 296.9906 702.1176 296.9906L702.1176 296.9906ZM457.4118 620C638.3013 620 784.9412 569.6987 784.9412 507.6489 784.9412 445.5991 638.3013 395.2978 457.4118 395.2978 276.5223 395.2978 129.8824 445.5991 129.8824 507.6489 129.8824 569.6987 276.5223 620 457.4118 620Z"  horiz-adv-x="1024" vert-adv-y="1024"  />

      
      <glyph glyph-name="uniE129" unicode="&#xE129;" d="M895.808 219.9169L895.968 219.8484 895.968 137.9853C895.968 129.8058 886.72 120.7707 865.888 109.1689 824.896 86.3074 612.576-7.055 567.392-32.2436 522.176-57.4665 497.088-57.227 461.376-38.9515 425.696-20.7102 199.744 76.8959 159.04 97.7039 138.688 108.1079 128 116.9034 128 125.1856L128 125.1856 128 208.2124C128.352 199.9302 138.72 191.169 159.04 180.7649 199.744 159.9911 425.664 62.3508 461.376 44.1095 497.088 25.8341 522.176 25.5945 567.392 50.7832 612.576 75.9718 824.928 169.3684 865.888 192.1957 885.792 203.3184 895.488 212.0797 895.808 219.9169L895.808 219.9169ZM895.776 355.2718L895.968 355.2376 895.968 273.3744C895.968 265.1949 886.72 256.1598 865.888 244.5238 824.896 221.6965 612.576 128.2999 567.392 103.1113 522.176 77.9226 497.088 78.1622 461.376 96.4376 425.664 114.6789 199.744 212.285 159.04 233.093 138.688 243.497 128 252.2583 128 260.5405L128 260.5405 128 343.5673C128.352 335.3193 138.72 326.5238 159.04 316.1541 199.744 295.346 425.664 197.7057 461.376 179.4644 497.088 161.2232 522.176 160.9836 567.392 186.1723 612.576 211.361 824.928 304.7575 865.888 327.5848 885.76 338.7075 895.456 347.4345 895.776 355.2718L895.776 355.2718ZM469.696 637.6519C517.152 655.8931 533.6 656.5434 574.016 640.732 614.432 624.8864 825.472 535.0491 865.408 519.4088 885.952 511.332 896.16 504.0082 895.776 495.6576L895.776 495.6576 896 495.6576 896 413.7944C896 405.6149 886.752 396.5798 865.92 384.9438 824.928 362.1165 612.608 268.7199 567.424 243.5313 522.208 218.3426 497.12 218.5822 461.408 236.8234 425.696 255.0647 199.776 352.705 159.072 373.513 138.72 383.9171 128.0244 392.6783 128.0244 400.9605L128.0244 400.9605 128.0244 484.0215C127.712 492.3036 137.472 500.0724 157.472 508.4915 197.44 525.1927 422.144 619.4791 469.696 637.6519ZM580.96 446.2727L403.008 417.0456 403.04 417.0456 527.2 361.9796 580.96 446.2727ZM691.296 537.4448L574.752 488.1626 679.936 443.6717 691.36 448.463 796.608 492.9539 796.576 492.9539 691.296 537.4448ZM355.04 526.6301C302.496 526.6301 259.904 508.9706 259.904 487.2043 259.904 465.4722 302.496 447.7786 355.04 447.7786 407.584 447.7786 450.144 465.438 450.144 487.2043 450.144 508.9706 407.584 526.5958 355.04 526.5958L355.04 526.5958ZM470.4 608.459L487.616 574.5091 430.304 552.4005 507.104 545.0082 531.168 502.2627 546.08 540.5933 612.608 547.9857 561.024 568.6568 574.72 603.7361 524.096 586.0082 470.4 608.459Z"  horiz-adv-x="1024" vert-adv-y="1024"  />

      
      <glyph glyph-name="uniE12A" unicode="&#xE12A;" d="M128 203.7932C128 211.5773 138.5166 215.4694 143.7749 209.6313 185.8414 170.7108 299.7714 143.4664 434.7347 143.4664 501.3399 143.4664 564.4396 151.2505 615.2699 162.9266 615.2699 96.7617 639.8087 48.111 671.3586 15.0285 615.2699-6.3778 529.3842-20 434.7347-20 264.716-20 128 24.7586 128 79.2474L128 79.2474ZM767.7609 396.45C774.772 410.0722 794.0524 410.0722 801.0635 396.45 832.6134 334.1771 900.9714 236.8757 895.7131 160.9806 895.7131 83.1395 848.3883 42.2729 809.8274 28.6507L809.8274 28.6507 809.8274 13.0825C809.8274-4.4318 797.558-18.054 781.783-18.054 766.0081-18.054 753.7387-4.4318 753.7387 13.0825L753.7387 13.0825 753.7387 28.6507C715.1778 42.2729 667.853 81.1935 667.853 160.9806 667.853 236.8757 736.211 334.1771 767.7609 396.45ZM128 431.0406C128 441.3757 138.454 445.5097 141.9386 439.3087 183.7545 397.9683 297.0059 369.03 431.1651 369.03 556.6128 369.03 664.6371 393.8342 711.68 431.0406 706.453 418.6385 701.226 408.3034 694.2567 395.9013 666.3795 344.2258 633.2752 280.1482 619.3366 216.0706 567.0667 201.6014 502.6006 193.3333 432.9075 193.3333 263.9016 193.3333 128 240.8748 128 298.7513L128 298.7513ZM435.2 620C604.8619 620 742.4 572.2437 742.4 513.3333 742.4 454.423 604.8619 406.6667 435.2 406.6667 265.5381 406.6667 128 454.423 128 513.3333 128 572.2437 265.5381 620 435.2 620Z"  horiz-adv-x="1024" vert-adv-y="1024"  />

      
      <glyph glyph-name="uniE12B" unicode="&#xE12B;" d="M730.9945 225.7695C688.6936 225.7695 651.851 198.6468 636.841 160.1041L460.815 250.0372C466.2731 265.7398 469.0022 282.8699 469.0022 300 469.0022 302.855 469.0022 307.1375 469.0022 309.9926L649.1219 402.7807C668.2255 377.0855 696.8809 359.9554 729.6299 359.9554 785.5762 359.9554 831.9706 408.4907 831.9706 467.0186 831.9706 525.5465 785.5762 574.0818 729.6299 574.0818 673.6837 574.0818 627.2892 525.5465 627.2892 467.0186 627.2892 452.7435 630.0183 439.8959 634.1119 428.4758L462.1795 339.9703C447.1695 395.6431 400.7751 438.4684 343.4643 444.1784L343.4643 536.9665C376.2133 544.1041 400.7751 574.0818 400.7751 609.7695 400.7751 651.1673 369.3906 684 329.8188 684 290.2471 684 258.8626 651.1673 258.8626 609.7695 258.8626 574.0818 283.4244 544.1041 316.1734 536.9665L316.1734 444.1784C246.5817 437.0409 192 375.658 192 300 192 224.342 246.5817 162.9591 316.1734 155.8216L316.1734 63.0335C283.4244 55.8959 258.8626 25.9182 258.8626-9.7695 258.8626-51.1673 290.2471-84 329.8188-84 369.3906-84 400.7751-51.1673 400.7751-9.7695 400.7751 25.9182 376.2133 55.8959 343.4643 63.0335L343.4643 155.8216C387.1296 160.1041 425.3368 185.7993 447.1695 224.342L628.6537 131.5539C628.6537 127.2714 627.2892 122.9888 627.2892 118.7063 627.2892 60.1784 673.6837 11.6431 729.6299 11.6431 785.5762 11.6431 831.9706 60.1784 831.9706 118.7063 833.3352 178.6617 786.9407 225.7695 730.9945 225.7695L730.9945 225.7695Z"  horiz-adv-x="1024" vert-adv-y="1024"  />

      
      <glyph glyph-name="uniE155" unicode="&#xE155;" d="M864 12C881.696 12 896-2.304 896-20 896-37.696 881.696-52 864-52L864-52 160-52C142.304-52 128-37.696 128-20 128-2.304 142.304 12 160 12L160 12ZM508.0512 684C595.2512 684 666.1632 613.056 666.1632 525.888 666.1632 457.024 621.7152 398.944 560.1792 377.28L560.1792 377.28 709.6832 264.096 818.2912 264.096C856.7872 264.096 888.0832 232.768 888.0512 194.272L888.0512 194.272 888.0512 145.856C888.0512 107.328 856.7232 76 818.2272 76L818.2272 76 197.8112 76C159.3152 76 127.9872 107.328 127.9872 145.856L127.9872 145.856 127.9872 194.272C127.9872 232.8 159.3152 264.096 197.8112 264.096L197.8112 264.096 306.3872 264.096 455.8912 377.28C394.4192 398.944 349.9392 457.024 349.9392 525.888 349.9392 613.056 420.8512 684 508.0512 684Z"  horiz-adv-x="1024" vert-adv-y="1024"  />

      
      <glyph glyph-name="uniE12C" unicode="&#xE12C;" d="M512 44C505.6 44 498.56 46.56 493.44 52.32L136.96 436.32C128.64 445.28 126.08 459.36 129.92 471.52S144 492 155.52 492H868.48C880 492 889.6 483.68 894.08 471.52S895.36 445.28 887.04 436.32L530.56 52.32C525.44 46.56 518.4 44 512 44Z"  horiz-adv-x="1024" vert-adv-y="1024"  />

      
      <glyph glyph-name="uniE12D" unicode="&#xE12D;" d="M512 76L556.8 120.8 692.8 256.8 648 301.6 544 197.6 544 716 480 716 480 197.6 376 301.6 331.2 256.8 467.2 120.8ZM864 300V-52H160V300H96V-84C96-101.6 110.4-116 128-116H896C913.6-116 928-101.6 928-84V300H864Z"  horiz-adv-x="1024" vert-adv-y="1024"  />

      
      <glyph glyph-name="uniE13A" unicode="&#xE13A;" d="M512 716C741.7505 716 928 529.7505 928 300 928 70.2495 741.7505-116 512-116 282.2495-116 96 70.2495 96 300 96 529.7505 282.2495 716 512 716ZM415.0469 519.4531L287.5469 519.4531 287.5469 108 366.7031 108 366.7031 340.6875C366.7031 366.7187 366.0557 392.7002 364.7607 418.6318L363.25 444.5469 365.6406 444.5469C371.322 416.7891 375.4411 398.9264 377.9977 390.9589L378.6562 389.0313 481.4531 108 551.3125 108 652.7813 391.6875C655.65 399.6562 659.3794 414.7252 663.9694 436.8942L665.5313 444.5469 667.6562 444.5469C665.6419 414.0221 664.5089 388.0393 664.2571 366.5984L664.2031 357.6875 664.2031 108 750.7969 108 750.7969 519.4531 626.75 519.4531 537.7656 271.3594C532.8958 257.6354 528.149 241.8209 523.5252 223.9158L520.7656 212.9219 518.9062 212.9219C516.7813 227.3719 513.1262 242.6152 507.9413 258.6519L503.7656 270.8281 415.0469 519.4531Z"  horiz-adv-x="1024" vert-adv-y="1024"  />

      
      <glyph glyph-name="uniE13B" unicode="&#xE13B;" d="M537.7646 727.321L728.94 619.2782C739.5441 613.5575 746.0736 602.7879 745.9994 591.142 745.9661 588.8231 745.6804 586.5411 745.161 584.3268 745.6455 582.3181 745.9268 580.2454 746 578.1409L746 369.2283C745.9563 366.288 745.492 363.4068 744.6467 360.6473L926.94 259.1556C937.3681 253.2681 943.8331 242.608 943.9994 231.028L943.9313 228.5329C943.9685 227.9673 943.9913 227.3991 943.9994 226.8287L943.9994 10.374C944.0749-1.6037 937.4337-12.6802 926.6483-18.5638L761.704-110.0415C758.8199-117.2385 753.3494-123.4 746.04-127.3049 741.3084-129.9326 736.0214-131.5353 730.5585-131.999 727.5222-132.0211 724.5115-131.6587 721.6035-130.9319 719.6167-131.4602 717.5478-131.8187 715.4522-132 709.3561-131.907 703.3849-130.3136 698.1018-127.37 691.2138-123.6124 686.0161-117.737 683.1787-110.8614L523.36-21.056 337.7203-123.6C336.0161-124.9893 334.1585-126.2333 332.1628-127.3068 326.9136-130.1963 320.9991-131.8082 314.9419-132L314.0175-131.9735C313.6964-131.9863 313.3748-131.9952 313.053-132 306.7872-131.9057 300.6499-130.2906 295.2197-127.3069 292.9159-125.9787 290.8054-124.4237 288.9119-122.6822L98.4509-14.67C87.9581-9.4741 80.9926 0.4921 80 11.7292L80 231.723C80.1731 243.799 86.9328 254.9157 97.8359 261.0555 100.5512 262.4854 103.4083 263.5656 106.3378 264.296L279.5663 360.0044C278.586 362.9593 278.0473 366.0614 278 369.2322L278 580.3999C278.6442 591.158 285.1229 600.907 295.2599 606.3725 297.2842 607.523 299.4078 608.4609 301.594 609.1861 304.5021 613.2529 308.3851 616.7562 313.06 619.2782L504.2354 727.321C514.4605 733.5597 527.5395 733.5597 537.7646 727.321ZM477.2421 173.0529L349.984 103.712 349.984-38.24 477.2421 32.2592 477.2421 173.0529ZM874.5971 168.9531L763.968 107.84 763.968-32.096 874.5971 30.0517 874.5971 168.9531ZM719.2941 299.0969L598.784 232.704 720.896 164.768 842.2346 232.1531 719.2941 299.0969ZM305.589 299.0969L184.736 232.608 306.784 164.864 428.6904 231.028 305.589 299.0969ZM677.8864 524.5012L547.968 457.792 547.968 320.608 677.8864 388.4256 677.8864 524.5012ZM521.2941 662.0451L397.7654 593.3929 520.1177 525.3035 644.2346 593.3929 521.2941 662.0451Z"  horiz-adv-x="1024" vert-adv-y="1024"  />

      
      <glyph glyph-name="uniE13C" unicode="&#xE13C;" d="M800 732C817.6731 732 832 717.6731 832 700L832-100C832-117.6731 817.6731-132 800-132L224-132C206.3269-132 192-117.6731 192-100L192 700C192 717.6731 206.3269 732 224 732L800 732ZM512 188C476.6538 188 448 159.3462 448 124 448 88.6538 476.6538 60 512 60 547.3462 60 576 88.6538 576 124 576 159.3462 547.3462 188 512 188ZM688 412L336 412 336 316 688 316 688 412ZM688 572L336 572 336 476 688 476 688 572Z"  horiz-adv-x="1024" vert-adv-y="1024"  />

      
      <glyph glyph-name="uniE13E" unicode="&#xE13E;" d="M512 716C741.7505 716 928 529.7505 928 300 928 70.2495 741.7505-116 512-116 282.2495-116 96 70.2495 96 300 96 529.7505 282.2495 716 512 716ZM536.25 495.6562L386.3438 495.6562 386.3438 60 479.1562 60 479.1562 211.875 526.9687 211.875C576.0938 210.75 617.0156 223.6406 649.7344 250.5469 682.4531 277.4531 698.8125 313.2187 698.8125 357.8438 698.8125 447.1667 647.5936 493.0687 545.1558 495.5499L536.25 495.6562ZM520.2187 423.6562C574.2187 423.6562 601.2187 400.5 601.2187 354.1875 601.2187 306.75 573.9375 283.0313 519.375 283.0313L479.1562 283.0313 479.1562 423.6562 520.2187 423.6562Z"  horiz-adv-x="1024" vert-adv-y="1024"  />

      
      <glyph glyph-name="uniE13D" unicode="&#xE13D;" d="M429.7873-109.596C454.691-123.4801 474.6306-114.224 474.6306-86.4298L474.6306 237.7921C474.6306 265.5863 454.691 293.3804 429.7873 307.2645L140.8433 474.0035C115.9396 483.2596 96 474.0035 96 450.8374L96 126.6154C96 98.8213 115.9396 71.0271 140.8433 57.143L429.7873-109.596ZM185.6866 575.8982C160.7829 562.0141 160.7829 543.476 185.6866 529.5919L469.6665 362.8529C494.5702 348.9688 529.4576 348.9688 554.3613 358.2248L838.3411 492.5416C863.2448 506.4257 863.2448 524.9638 838.3411 538.8479L539.4412 705.5869C519.5016 719.471 479.6501 719.471 454.7464 705.5869L185.7143 575.8982 185.6866 575.8982ZM554.3335-86.4558C554.3335-114.25 574.2731-123.5061 599.1768-109.622L883.1567 24.6948C908.0604 38.5789 928 66.3731 928 94.1672L928 418.3892C928 446.1834 908.0604 455.4394 883.1567 441.5553L599.1768 307.2385C574.2731 293.3544 554.3335 265.5603 554.3335 237.7661L554.3335-86.4558 554.3335-86.4558Z"  horiz-adv-x="1024" vert-adv-y="1024"  />

      
      <glyph glyph-name="uniE13F" unicode="&#xE13F;" d="M756.2153 585.8935C890.0371 452.0717 899.2475 240.8264 783.8465 96.3471L895.862-15.6742C920.8556-40.6677 920.8556-81.1903 895.862-106.1838 870.8685-131.1774 830.3459-131.1774 805.3524-106.1838L687.6873 11.4451C545.9908-75.1505 358.3922-57.1446 235.7847 65.4629 92.0718 209.1759 92.0718 442.1806 235.7847 585.8935 379.4976 729.6065 612.5024 729.6065 756.2153 585.8935ZM629.9938 443.7645L470.7906 284.5758 377.543 377.8234 320.9745 321.2548 468.0527 174.1766 468.822 174.9912 471.6019 172.2355 686.5623 387.196 629.9938 443.7645Z"  horiz-adv-x="1024" vert-adv-y="1024"  />

      
      <glyph glyph-name="uniE140" unicode="&#xE140;" d="M906.7246 612.9466L842.4825 690.6196C829.6225 706.8048 810.0249 716.1651 789.3535 715.9978L234.6484 715.9978C212.9571 715.9978 193.9994 706.3087 181.044 690.5602L117.2773 612.9466C103.444 596.5188 95.9031 575.7074 96.0009 554.2313L96.0009-23.5319C96.0009-74.4027 137.6018-116.0026 188.4725-116.0026L835.5888-116.0026C886.4001-116.0026 928-74.4027 928-23.5319L928 554.2313C928 576.3981 920.1554 597.1981 906.7246 612.9466ZM512.001 43.9788L255.9832 299.9965 415.9646 299.9965 415.9646 428.0053 607.9779 428.0053 607.9779 299.9965 767.9592 299.9965 512.001 43.9788ZM191.9788 620.0186L223.9513 684.023 799.9317 684.023 831.9042 620.0186 191.9788 620.0186Z"  horiz-adv-x="1024" vert-adv-y="1024"  />

      
      <glyph glyph-name="uniE141" unicode="&#xE141;" d="M832 684C867.3462 684 896 655.3462 896 620L896-20C896-55.3462 867.3462-84 832-84L192-84C156.6538-84 128-55.3462 128-20L128 620C128 655.3462 156.6538 684 192 684L832 684ZM832 620L192 620 192-20 832-20 832 620ZM768 364L768 44 384 44 384 364 768 364ZM704 300L448 300 448 108 704 108 704 300Z"  horiz-adv-x="1024" vert-adv-y="1024"  />

      
      <glyph glyph-name="uniE142" unicode="&#xE142;" d="M912 404.7139L675.7124 410.6212 781.5692 515.9499C720.951 594.6117 627.3391 640.7866 528.0326 641.0092 368.0532 641.764 231.3336 525.942 205.7767 368.0103 180.2198 210.0785 273.4328 57.0459 425.4849 7.3037 577.5371-42.4384 743.1695 25.9158 815.89 168.4185L882.464 168.4185C816.1205 9.0547 651.5893-86.4466 480.3083-65.0107 309.0273-43.5748 173.1042 89.5284 148.0779 260.3272 123.0517 431.1261 215.0747 597.6313 373.0054 667.308 530.9362 736.9847 715.949 692.7036 825.2234 559.0738L907.4515 641.0092 912 404.7139Z"  horiz-adv-x="1024" vert-adv-y="1024"  />

      
      <glyph glyph-name="uniE143" unicode="&#xE143;" d="M512 748C759.4236 748 960 547.4236 960 300 960 52.5764 759.4236-148 512-148 264.5764-148 64 52.5764 64 300 64 547.4236 264.5764 748 512 748ZM512 684C299.9227 684 128 512.0773 128 300 128 87.9227 299.9227-84 512-84 724.0773-84 896 87.9227 896 300 896 512.0773 724.0773 684 512 684ZM376.2355 481.0193L693.0193 164.2355 647.7645 118.9807 330.9807 435.7645 376.2355 481.0193Z"  horiz-adv-x="1024" vert-adv-y="1024"  />

      
      <glyph glyph-name="uniE148" unicode="&#xE148;" d="M512 716C741.7505 716 928 529.7505 928 300 928 70.2495 741.7505-116 512-116 282.2495-116 96 70.2495 96 300 96 529.7505 282.2495 716 512 716ZM743.5898 396C720.8918 396 702.6537 391.226 688.8758 381.6779 675.0978 372.1298 668.2088 358.7266 668.2088 341.4682 668.2088 317.9775 683.4106 300.0799 713.8143 287.7753 733.1621 280.1049 745.0975 274.0325 749.6203 269.5581 754.1432 265.0836 756.4046 260.3296 756.4046 255.2959 756.4046 249.4632 753.5569 244.6891 747.8614 240.9738 742.166 237.2584 733.6647 235.4007 722.3575 235.4007 704.6383 235.4007 688.6066 240.2934 674.2625 250.0787L668.9626 253.9775 668.9626 214.3071C683.2012 207.4357 701.4602 204 723.7395 204 748.1127 204 766.9161 208.6742 780.1497 218.0225 793.3832 227.3708 800 240.9538 800 258.7715 800 270.9164 796.3775 281.3833 789.1326 290.1723 781.8876 298.9613 768.5912 307.3109 749.2434 315.221 732.7433 322.0924 722.3994 327.5456 718.2115 331.5805 714.0237 335.6155 711.9298 340.03 711.9298 344.824 711.9298 350.8165 714.9869 355.5905 721.1012 359.1461 727.2154 362.7016 735.3817 364.4794 745.6 364.4794 760.6044 364.4794 773.9782 361.3682 785.7212 355.1458L791.4568 351.7753 791.4568 388.9288C778.5583 393.6429 762.6026 396 743.5898 396ZM323.2148 392.8839L256 392.8839 256 207.236 322.9635 207.236C353.5347 207.236 378.4942 215.9251 397.842 233.3034 417.1898 250.6816 426.8637 273.7129 426.8637 302.397 426.8637 360.5671 394.7379 390.691 330.4861 392.7685L323.2148 392.8839ZM504.8831 392.8839L459.6545 392.8839 459.6545 207.236 498.9783 207.236 498.9783 312.824C498.9783 323.9434 498.7166 332.6492 498.1931 338.9413L497.8476 342.427 498.4758 342.427C499.9206 339.5506 502.0249 336 504.7889 331.7753L507.7727 327.3258 590.1894 207.236 632.654 207.236 632.654 392.8839 593.3303 392.8839 593.3303 287.0562C593.3303 276.2354 593.6379 268.4085 594.2533 263.5753L594.5866 261.4082 593.9584 261.4082C593.5676 262.1007 592.9487 263.1083 592.1018 264.4311L588.8772 269.345C588.0086 270.6471 587.0387 272.0892 585.9674 273.6714L584.2845 276.1498 504.8831 392.8839ZM319.9483 360.5243C338.7098 360.5243 353.9535 355.3508 365.6794 345.0037 377.4054 334.6567 383.2684 320.2547 383.2684 301.7978 383.2684 282.7016 377.6567 267.5606 366.4333 256.3745 355.2099 245.1885 339.7567 239.5955 320.0739 239.5955L297.4596 239.5955 297.4596 360.5243 319.9483 360.5243Z"  horiz-adv-x="1024" vert-adv-y="1024"  />

      
      <glyph glyph-name="uniE14C" unicode="&#xE14C;" d="M512 684C300.8 684 128 511.2 128 300 128 88.8 300.8-84 512-84 723.2-84 896 88.8 896 300 896 511.2 723.2 684 512 684ZM320 127.2C320 242.4 442.88 280.8 458.24 280.8 465.92 284.64 473.6 296.16 465.92 300 427.52 315.36 408.32 361.44 408.32 407.52 408.32 465.12 446.72 511.2 508.16 511.2 569.6 511.2 608 465.12 608 407.52 608 365.28 588.8 319.2 550.4 300 550.4 292.32 554.24 280.8 565.76 280.8 642.56 265.44 700.16 204 700.16 127.2L320 127.2 320 127.2Z"  horiz-adv-x="1024" vert-adv-y="1024"  />

      
      <glyph glyph-name="uniE149" unicode="&#xE149;" d="M832 684C867.3462 684 896 655.3462 896 620L896-20C896-55.3462 867.3462-84 832-84L192-84C156.6538-84 128-55.3462 128-20L128 620C128 655.3462 156.6538 684 192 684L832 684ZM673.6705 280.6762L589.2548 196.2355 566.6007 218.8713 492.6807 144.9513 597.8234 39.7847 756.2153 198.1766 741.5527 212.7939 657.1371 128.3532 611.8822 173.6081 696.2979 258.0488 673.6705 280.6762ZM726.6274 514.6274C702.7699 538.4849 664.7631 539.5693 639.6193 517.8807L639.6193 517.8807 638.471 516.8449 638.3919 516.9016 307.4659 185.9756 275.8755 64.831 397.9756 95.4659 728.9016 426.3919 728.8223 426.4936 729.8807 427.6193C751.5693 452.7631 750.4849 490.7699 726.6274 514.6274ZM324.9085 168.533L382.1518 111.2898 302.1125 88.4937 324.9085 168.533ZM394.1766 560.2153L235.7847 401.8234 356.9367 280.6953 430.8887 354.6153 408.2355 377.2548 492.6511 461.6955 470.0237 484.3229 385.6081 399.8822 340.3532 445.1371 424.7689 529.5778 394.1766 560.2153ZM661.1418 494.1691C673.7111 504.4493 692.2738 503.7262 704 492 715.6042 480.3958 716.433 462.0968 706.4866 449.5362L706.4866 449.5362 706.1496 449.1663Z"  horiz-adv-x="1024" vert-adv-y="1024"  />

      
      <glyph glyph-name="uniE14D" unicode="&#xE14D;" d="M512 663.8655C713.8102 663.8655 876.3796 497.0369 876.3796 289.9393 876.3796 203.6487 846.9489 118.7962 792.292 52.64L788.0876 46.8873 867.9708-35.0888 828.7299-75.3578 748.8467 6.6183C614.3066-112.7504 415.2993-114.1886 279.3577 2.3038L275.1533 6.6183 195.2701-75.3578 156.0292-35.0888 235.9124 46.8873C178.4526 115.9198 147.6204 202.2105 147.6204 291.3775 147.6204 497.0369 310.1898 663.8655 512 663.8655ZM512 520.0478L455.9416 520.0478 455.9416 261.1758 611.5037 138.9307 645.1387 184.9524 512 289.9393 512 520.0478ZM240.1168 684L279.3577 643.731 167.2409 528.6768 128 568.9458 240.1168 684ZM783.8832 684L896 568.9458 856.7591 528.6768 744.6423 643.731 783.8832 684Z"  horiz-adv-x="1024" vert-adv-y="1024"  />

      
      <glyph glyph-name="uniE14A" unicode="&#xE14A;" d="M656 492C806.4 492 928 370.4 928 220 928 69.6 806.4-52 656-52 505.6-52 384 69.6 384 220 384 370.4 505.6 492 656 492ZM360 60C380.8 23.2 406.4-8.8 438.4-36L438.4-36 96-36 96 60ZM323.2 268C321.6 252 320 236 320 220 320 204 321.6 188 323.2 172L323.2 172 96 172 96 268ZM688 380L624 380 624 188 816 188 816 252 688 252 688 380ZM438.4 476C406.4 448.8 380.8 416.8 360 380L360 380 96 380 96 476ZM864 684L864 588 96 588 96 684 864 684Z"  horiz-adv-x="1024" vert-adv-y="1024"  />

      
      <glyph glyph-name="uniE14F" unicode="&#xE14F;" d="M896 556L896-52C896-105.0193 724.0773-148 512-148 303.7098-148 134.1529-106.5407 128.1637-54.8305L128-52 128 556C128 502.9807 299.9227 460 512 460 720.2902 460 889.8471 501.4593 895.8363 553.1695L896 556ZM695.572 179.0043L650.5458 179.0043C647.8169 179.0043 645.088 176.2755 645.088 173.5466L645.088 173.5466 645.088 103.9606C645.088 86.223 631.4437 72.5787 613.7061 72.5787L613.7061 72.5787 430.8723 72.5787 430.8723 120.3338C430.8723 124.4271 425.4146 127.1559 421.3213 124.4271L421.3213 124.4271 324.4466 48.0189C321.7178 45.2901 321.7178 41.1968 324.4466 38.4679L324.4466 38.4679 421.3213-37.9403C425.4146-42.0336 430.8723-39.3047 430.8723-33.847L430.8723-33.847 430.8723 13.9081 612.3417 13.9081C661.4612 13.9081 701.0297 53.4766 701.0297 102.5962L701.0297 102.5962 701.0297 173.5466C701.0297 176.2755 698.3009 179.0043 695.572 179.0043L695.572 179.0043ZM604.1551 374.118C600.0618 378.2113 594.6041 375.4825 594.6041 370.0247L594.6041 370.0247 594.6041 322.2696 411.7703 322.2696C362.6507 322.2696 323.0822 282.7011 323.0822 233.5816L323.0822 233.5816 323.0822 163.9956C323.0822 161.2667 325.8111 158.5379 328.5399 158.5379L328.5399 158.5379 373.5662 158.5379C376.295 158.5379 379.0239 161.2667 379.0239 163.9956L379.0239 163.9956 379.0239 233.5816C379.0239 251.3192 392.6682 264.9635 410.4058 264.9635L410.4058 264.9635 591.8752 264.9635 591.8752 217.2084C591.8752 213.1151 597.3329 210.3863 601.4262 213.1151L601.4262 213.1151 698.3009 289.5233C702.3942 290.8877 702.3942 296.3454 701.0297 297.7099L701.0297 297.7099ZM512 748C724.0773 748 896 705.0193 896 652 896 598.9807 724.0773 556 512 556 299.9227 556 128 598.9807 128 652 128 705.0193 299.9227 748 512 748Z"  horiz-adv-x="1024" vert-adv-y="1024"  />

      
      <glyph glyph-name="uniE14B" unicode="&#xE14B;" d="M352 332C493.3849 332 608 230.6936 608 105.7258 608-19.2419 96-19.2419 96 105.7258 96 230.6936 210.6151 332 352 332ZM896 140L896 44 704 44 704 140 896 140ZM896 364L896 268 640 268 640 364 896 364ZM352 620C422.6924 620 480 562.6924 480 492 480 421.3076 422.6924 364 352 364 281.3076 364 224 421.3076 224 492 224 562.6924 281.3076 620 352 620ZM896 588L896 492 544 492 544 588 896 588Z"  horiz-adv-x="1024" vert-adv-y="1024"  />

      
      <glyph glyph-name="uniE150" unicode="&#xE150;" d="M468.5801-33.1344C480.4671-47.9982 499.7836-56.9165 519.1001-56.9165 538.4166-56.9165 557.7331-47.9982 569.6202-33.1344L569.6202-33.1344 636.4849-33.1344C629.0555-53.9437 615.6826-73.2666 597.852-88.1304 551.7896-125.2899 486.4107-125.2899 440.3483-88.1304 422.5177-73.2666 409.1447-55.4301 401.7153-33.1344L401.7153-33.1344ZM519.1001 716C551.7896 716 578.5355 689.2452 578.5355 656.5449L578.5355 656.5449 578.5355 620.8718C700.3779 592.6306 786.5592 484.1251 786.5592 359.2693L786.5592 359.2693 786.5592 158.6083 843.0228 45.6436C847.4804 36.7253 845.9945 26.3207 841.5369 17.4024 835.5934 8.4841 826.6781 2.5386 816.2769 2.5386L816.2769 2.5386 221.9234 2.5386C211.5222 2.5386 202.6069 8.4841 196.6634 17.4024 190.7198 26.3207 190.7198 36.7253 195.1775 45.6436L195.1775 45.6436 251.6411 158.6083 251.6411 359.2693C251.6411 484.1251 337.8223 592.6306 459.6648 620.8718L459.6648 620.8718 459.6648 656.5449C459.6648 689.2452 486.4107 716 519.1001 716Z"  horiz-adv-x="1024" vert-adv-y="1024"  />

      
      <glyph glyph-name="uniE14E" unicode="&#xE14E;" d="M429.7873-109.596C454.691-123.4801 474.6306-114.224 474.6306-86.4298L474.6306 237.7921C474.6306 265.5863 454.691 293.3804 429.7873 307.2645L140.8433 474.0035C115.9396 483.2596 96 474.0035 96 450.8374L96 126.6154C96 98.8213 115.9396 71.0271 140.8433 57.143L429.7873-109.596ZM185.6866 575.8982C160.7829 562.0141 160.7829 543.476 185.6866 529.5919L469.6665 362.8529C494.5702 348.9688 529.4576 348.9688 554.3613 358.2248L838.3411 492.5416C863.2448 506.4257 863.2448 524.9638 838.3411 538.8479L539.4412 705.5869C519.5016 719.471 479.6501 719.471 454.7464 705.5869L185.7143 575.8982 185.6866 575.8982ZM554.3335-86.4558C554.3335-114.25 574.2731-123.5061 599.1768-109.622L883.1567 24.6948C908.0604 38.5789 928 66.3731 928 94.1672L928 418.3892C928 446.1834 908.0604 455.4394 883.1567 441.5553L599.1768 307.2385C574.2731 293.3544 554.3335 265.5603 554.3335 237.7661L554.3335-86.4558 554.3335-86.4558Z"  horiz-adv-x="1024" vert-adv-y="1024"  />

      
      <glyph glyph-name="uniE154" unicode="&#xE154;" d="M512 748C759.424 748 960 547.424 960 300 960 52.576 759.424-148 512-148 264.576-148 64 52.576 64 300 64 547.424 264.576 748 512 748ZM608.6592 284.082C580.2682 267.507 547.2462 258 512.0002 258 476.7542 258 443.7312 267.507 415.3412 284.082 334.8442 256.701 269.7322 196.064 236.3482 118.547 295.3742 29.062 396.7812-30 512.0002-30 627.2192-30 728.6262 29.062 787.6512 118.547 754.2672 196.064 689.1562 256.701 608.6592 284.082ZM512 600C429.157 600 362 532.843 362 450 362 367.157 429.157 300 512 300 594.843 300 662 367.157 662 450 662 532.843 594.843 600 512 600Z"  horiz-adv-x="1024" vert-adv-y="1024"  />

      
      <glyph glyph-name="uniE157" unicode="&#xE157;" d="M512 588H224V498.4H512ZM512 236A64 64 0 1 0 448 172 64 64 0 0 0 512 236ZM525.44 364H498.56A187.84 187.84 0 0 1 468.16 359.84L458.88 314.4A165.44 165.44 0 0 1 409.92 287.52L363.84 302.24A242.88 242.88 0 0 1 345.6 280.48L330.56 255.52A183.36 183.36 0 0 1 320 229.6L356.48 197.6A146.24 146.24 0 0 1 354.24 171.04 153.6 153.6 0 0 1 356.48 143.84L320 114.4A200.32 200.32 0 0 1 332.16 85.92L343.68 66.72A249.28 249.28 0 0 1 364.16 41.76L410.24 56.8A161.92 161.92 0 0 1 458.56 30.24L468.16-15.52A218.88 218.88 0 0 1 512-20 202.88 202.88 0 0 1 556.16-15.2L565.76 30.24A169.28 169.28 0 0 1 613.44 56.8L659.84 42.08A187.52 187.52 0 0 1 704 114.72L667.52 146.72A147.2 147.2 0 0 1 670.08 173.6 177.6 177.6 0 0 1 667.84 199.84L704.32 231.84A189.12 189.12 0 0 1 690.56 263.84L682.24 277.6A219.2 219.2 0 0 1 660.48 304.8L614.4 289.76A160 160 0 0 1 566.08 316.64L556.48 362.4A236.8 236.8 0 0 1 525.44 364ZM608 748L896 479.2V-116A32 32 0 0 0 864-148H160A32 32 0 0 0 128-116V716A32 32 0 0 0 160 748Z"  horiz-adv-x="1024" vert-adv-y="1024"  />

      
      <glyph glyph-name="uniE159" unicode="&#xE159;" d="M512 748L128 524V76L512-148 896 76V524ZM704 364H544V44H480V364H320V428H704Z"  horiz-adv-x="1024" vert-adv-y="1024"  />

      
      <glyph glyph-name="uniE15C" unicode="&#xE15C;" d="M528 748C280 748 80 548 80 300S280-148 528-148 976 52 976 300 776 748 528 748ZM560-82.4V12H496V-82.4C308.8-66.4 161.6 80.8 145.6 268H240V332H145.6C161.6 519.2 308.8 666.4 496 682.4V588H560V682.4C747.2 666.4 894.4 519.2 910.4 332H816V268H910.4C894.4 80.8 747.2-66.4 560-82.4ZM528 364C563.2 364 592 335.2 592 300S563.2 236 528 236 464 264.8 464 300 492.8 364 528 364M528 428C457.6 428 400 370.4 400 300S457.6 172 528 172 656 229.6 656 300 598.4 428 528 428Z"  horiz-adv-x="1024" vert-adv-y="1024"  />

      
      <glyph glyph-name="uniE15D" unicode="&#xE15D;" d="M512 684C563.9 684 614.2 673.9 661.5 653.8 707.2 634.5 748.3 606.8 783.6 571.5S846.6 495.1 865.9 449.4C885.9 402.1 896.1 351.8 896.1 299.9S886 197.7 865.9 150.4C846.6 104.7 818.9 63.6 783.6 28.3S707.2-34.7 661.5-54C614.2-74 563.9-84.2 512-84.2S409.8-74.1 362.5-54C316.8-34.7 275.7-7 240.4 28.3S177.4 104.7 158.1 150.4C138.1 197.7 127.9 248 127.9 299.9S138 402.1 158.1 449.4C177.4 495.1 205.1 536.2 240.4 571.5S316.8 634.5 362.5 653.8C409.8 673.9 460.1 684 512 684M512 748C264.6 748 64 547.4 64 300S264.6-148 512-148 960 52.6 960 300 759.4 748 512 748L512 748ZM704 332L544 332 544 492 480 492 480 332 320 332 320 268 480 268 480 108 544 108 544 268 704 268Z"  horiz-adv-x="1024" vert-adv-y="1024"  />

      
      <glyph glyph-name="uniE15E" unicode="&#xE15E;" d="M512 684C563.9 684 614.2 673.9 661.5 653.8 707.2 634.5 748.3 606.8 783.6 571.5S846.6 495.1 865.9 449.4C885.9 402.1 896.1 351.8 896.1 299.9S886 197.7 865.9 150.4C846.6 104.7 818.9 63.6 783.6 28.3S707.2-34.7 661.5-54C614.2-74 563.9-84.2 512-84.2S409.8-74.1 362.5-54C316.8-34.7 275.7-7 240.4 28.3S177.4 104.7 158.1 150.4C138.1 197.7 127.9 248 127.9 299.9S138 402.1 158.1 449.4C177.4 495.1 205.1 536.2 240.4 571.5S316.8 634.5 362.5 653.8C409.8 673.9 460.1 684 512 684M512 748C264.6 748 64 547.4 64 300S264.6-148 512-148 960 52.6 960 300 759.4 748 512 748L512 748ZM320 332H704V268H320V332Z"  horiz-adv-x="1024" vert-adv-y="1024"  />

      
      <glyph glyph-name="uniE160" unicode="&#xE160;" d="M480 596.8H480C528 616.96 510.72 642.24 492.8 657.28A332.96 332.96 0 0 1 351.84 713.12H350.08A448 448 0 0 1 64 300V300C64 293.44 64 285.76 64 277.92S64 261.92 64 254.72V255.84A693.28 693.28 0 0 0 472 595.52L476.96 596.8ZM960 300A448 448 0 0 1 916.32 492L917.44 489.28A257.76 257.76 0 0 1 758.88 560.96H757.92C713.76 557.12 757.92 484.8 757.92 484.8H757.92A700.16 700.16 0 0 0 829.6 348L831.2 343.2A693.6 693.6 0 0 0 880 83.52C880 70.4 880 57.6 879.04 44.8V46.56A442.72 442.72 0 0 1 960 300ZM564.16 676.32H564.16L589.92 660.32A359.84 359.84 0 0 1 711.68 620L713.76 620 752.8 615.04A343.2 343.2 0 0 0 873.28 564.32L872.16 564.32A444.48 444.48 0 0 1 397.12 732L400.16 732A448 448 0 0 0 564.64 676.32L562.56 677.44ZM535.68 536.32A706.4 706.4 0 0 1 80 194.56L78.08 191.04A448 448 0 0 1 841.6-3.04L841.6-3.04C841.6 5.92 841.6 16.48 841.6 27.04A724.16 724.16 0 0 1 665.6 501.6L666.4 500.8A144 144 0 0 1 565.76 541.6 149.28 149.28 0 0 1 533.76 538.08H534.72Z"  horiz-adv-x="1024" vert-adv-y="1024"  />

      
      <glyph glyph-name="uniE161" unicode="&#xE161;" d="M496 596L419.68 519.68 572.32 366.88H64V265.12H572.16L419.68 112.32 496 36 775.52 316ZM858.4 596V36H960V596Z"  horiz-adv-x="1024" vert-adv-y="1024"  />

      
      <glyph glyph-name="uniE162" unicode="&#xE162;" d="M785.92-212C785.792-212 785.6213-212 785.4933-212 773.888-212 763.008-208.928 753.6213-203.5093L512-69.92 268.8-203.04C258.7307-209.9947 246.2293-214.1333 232.7893-214.1333 197.4613-214.1333 168.7893-185.4613 168.7893-150.1333 168.7893-144.3733 169.5573-138.784 170.9653-133.4933L217.6 153.3973 19.2 360.1173C5.3333 371.936-3.3707 389.3867-3.3707 408.8853-3.3707 442.72 22.8693 470.4107 56.1067 472.7147L328.96 514.3147 451.84 773.5147C461.0133 798.304 484.48 815.6693 512 815.6693S562.9867 798.304 572.032 773.9413L693.12 517.5147 967.68 473.9947C1001.088 471.6053 1027.2853 443.9573 1027.2853 410.1653 1027.2853 391.008 1018.88 373.8133 1005.5253 362.08L805.76 157.2373 851.84-132.6827C852.736-136.736 853.2907-141.3867 853.2907-146.1227 853.2907-181.4507 824.6187-210.1227 789.2907-210.1227 788.7787-210.1227 788.2667-210.1227 787.7973-210.1227ZM512-5.92C512.128-5.92 512.2987-5.92 512.4267-5.92 524.032-5.92 534.912-8.992 544.2987-14.4107L784.64-148 741.76 142.56C741.0773 146.016 740.736 149.984 740.736 154.0373 740.736 171.8293 747.9893 187.9147 759.68 199.52L960 404.96 684.8 451.04C662.3147 454.1973 643.84 468.6613 635.0507 488.3733L512 748 389.12 488.8C380.16 468.6613 361.6853 454.1973 339.5413 451.0827L64 409.44 262.4 200.16C274.0907 188.5547 281.344 172.4693 281.344 154.6773 281.344 150.624 280.96 146.656 280.2347 142.7733L235.4773-148.0427 479.9573-20.0427C488.7467-12.7467 499.6267-7.712 511.616-6.0053Z"  horiz-adv-x="1024" vert-adv-y="1024"  />

      
      <glyph glyph-name="uniE163" unicode="&#xE163;" d="M881.92-2.08L753.92 125.92 750.88 128.48A352 352 0 1 1 685.6 58.72L685.6 58.72 813.6-69.28A48 48 0 1 1 881.44-1.44ZM464 44A288 288 0 1 0 752 332 288 288 0 0 0 464 44Z"  horiz-adv-x="1024" vert-adv-y="1024"  />

      
      <glyph glyph-name="uniE164" unicode="&#xE164;" d="M512 748C264 748 64 548 64 300S264-148 512-148 960 52 960 300 760 748 512 748ZM736 268H544V76H480V268H288V332H480V524H544V332H736V268Z"  horiz-adv-x="1024" vert-adv-y="1024"  />

      
      <glyph glyph-name="uniE165" unicode="&#xE165;" d="M1020.8 428C1013.3333 451.8507 992.9387 469.472 968.0213 472.7573L693.12 516.32 572.16 773.6C562.9867 798.3893 539.52 815.7547 512 815.7547S461.0133 798.3893 451.968 774.0267L328.96 514.4 56.32 472.8C22.8693 470.496-3.3707 442.7627-3.3707 408.928-3.3707 389.4293 5.3333 371.936 19.1147 360.2027L218.88 152.7573 172.16-134.6027C170.8373-139.4667 170.0693-145.056 170.0693-150.816 170.0693-186.144 198.7413-214.816 234.0693-214.816 247.5093-214.816 260.0107-210.6773 270.2933-203.5947L512-69.9627 752.64-203.0827C762.7093-210.0373 775.2107-214.176 788.6507-214.176 823.9787-214.176 852.6507-185.504 852.6507-150.176 852.6507-144.416 851.8827-138.8267 850.4747-133.536L804.48 155.9573 1004.16 360.7573C1016.5333 372.448 1024.2133 388.96 1024.2133 407.3067 1024.2133 414.688 1022.976 421.8133 1020.6293 428.4267Z"  horiz-adv-x="1024" vert-adv-y="1024"  />

      
      <glyph glyph-name="uniE167" unicode="&#xE167;" d="M928 470.1818L928 348C928 339.7273 924.8333 332.5682 918.5 326.5227 912.1667 320.4773 904.6667 317.4545 896 317.4545L864 317.4545C855.3333 317.4545 847.8333 320.4773 841.5 326.5227 835.1667 332.5682 832 339.7273 832 348L832 470.1818C832 503.9091 819.5 532.7045 794.5 556.5682 769.5 580.4318 739.3333 592.3636 704 592.3636 668.6667 592.3636 638.5 580.4318 613.5 556.5682 588.5 532.7045 576 503.9091 576 470.1818L576 378.5455 624 378.5455C637.3333 378.5455 648.6667 374.0909 658 365.1818 667.3333 356.2727 672 345.4545 672 332.7273L672-38.1818C672-50.9091 667.3333-61.7273 658-70.6364 648.6667-79.5455 637.3333-84 624-84L144-84C130.6667-84 119.3333-79.5455 110-70.6364 100.6667-61.7273 96-50.9091 96-38.1818L96 332.7273C96 345.4545 100.6667 356.2727 110 365.1818 119.3333 374.0909 130.6667 378.5455 144 378.5455L480 378.5455 480 470.1818C480 529.0455 501.9167 579.3977 545.75 621.2386 589.5833 663.0795 642.3333 684 704 684 765.6667 684 818.4167 663.0795 862.25 621.2386 906.0833 579.3977 928 529.0455 928 470.1818Z"  horiz-adv-x="1024" vert-adv-y="1024"  />

      
      <glyph glyph-name="uniE168" unicode="&#xE168;" d="M631.156 526.0478L473.2444 526.0478 473.2444 652 128 482.6989 473.2444 313.4408 473.2444 439.3491 643.7787 439.3491C778.5337 439.3491 845.9116 383.6268 845.9116 272.1392 845.9116 156.5122 776.4001 100.7891 635.3782 100.7891L239.5543 100.7891 239.5543 12 641.6882 12C831.1553 12 928 96.6506 928 263.8613 928 439.3491 829.0675 526.0478 631.156 526.0478Z"  horiz-adv-x="1024" vert-adv-y="1024"  />

      
      <glyph glyph-name="uniE169" unicode="&#xE169;" d="M864 684H496V620H787.2L361.6 194.4 406.4 149.6 832 575.2V284H896V652C896 669.6 881.6 684 864 684ZM832 108V-20H192V620H318.4V684H160C142.4 684 128 669.6 128 652V-52C128-69.6 142.4-84 160-84H864C881.6-84 896-69.6 896-52V108H832Z"  horiz-adv-x="1024" vert-adv-y="1024"  />

      
      <glyph glyph-name="uniE16B" unicode="&#xE16B;" d="M1886.08 812H161.92A161.92 161.92 0 0 1 0 650.08V-50.08A161.92 161.92 0 0 1 161.92-212H1886.08A161.92 161.92 0 0 1 2048-50.08V650.08A161.92 161.92 0 0 1 1886.08 812ZM734.08 40.8H670.08L432.64 401.12V40.8H374.4V499.04H438.4L679.04 139.36V499.04H737.28ZM1182.08 40.8H838.4V499.04H1169.92V444.64H899.2V304.48H1155.2V250.72H899.2V94.56H1180.16ZM1687.68 40.8H1629.44L1530.88 389.6C1523.2 419.04 1518.08 436.96 1516.8 443.36L1503.36 389.6 1408 40.8H1344L1222.4 499.04H1286.4L1355.52 198.88C1363.2 166.88 1369.6 134.88 1375.36 104.8 1386.88 154.08 1393.92 182.24 1395.84 189.28L1482.88 499.04H1555.84L1619.84 267.36A1276.16 1276.16 0 0 0 1655.68 104.8C1661.44 133.6 1669.12 168.8 1678.08 204.64L1750.4 499.04H1811.2ZM677.12 139.36L436.48 499.04 374.4 499.04 374.4 40.8 432.64 40.8 432.64 401.12 673.28 40.8 735.36 40.8 735.36 499.04 677.12 499.04 677.12 139.36ZM899.2 250.72L1152.64 250.72 1152.64 304.48 899.2 304.48 899.2 444.64 1169.92 444.64 1169.92 499.04 838.4 499.04 838.4 40.8 1180.16 40.8 1180.16 94.56 899.2 94.56 899.2 250.72ZM1678.72 204.64C1669.76 166.88 1662.08 133.6 1656.32 104.8A1276.16 1276.16 0 0 1 1620.48 267.36L1556.48 499.04H1481.6L1394.56 189.28C1394.56 182.24 1385.6 154.08 1374.08 104.8 1368.32 136.16 1361.92 168.8 1354.24 198.88L1285.12 499.04H1221.12L1344 40.8H1408L1503.36 389.6 1516.8 443.36C1516.8 436.96 1523.2 419.04 1530.88 389.6L1627.52 40.8H1685.76L1813.76 499.04H1752.96Z"  horiz-adv-x="2048" vert-adv-y="1024"  />

      
      <glyph glyph-name="uniE1A4" unicode="&#xE1A4;" d="M587.0433 44.8571C657.6716 45.4453 715.3863-11.2721 716-81.9004 716.5881-152.5287 659.8451-210.269 589.2424-210.8571 518.6397-211.4453 460.8994-154.7023 460.2857-84.0996L460.2857-84.0996 460.2857-83C460.2857-12.832 516.8497 44.269 587.0433 44.8571ZM126.7576 44.8571C197.3859 45.4453 255.1006-11.2721 255.7143-81.9004 256.3024-152.5287 199.5594-210.269 128.9567-210.8571 58.354-211.4453 0.6137-154.7023 0-84.0996L0-84.0996 0-83C0-12.832 56.564 44.269 126.7576 44.8571ZM587.0433 428.4286C657.6716 429.0167 715.3863 372.2993 716 301.671 716.5881 231.0427 659.8451 173.3024 589.2424 172.7143 518.6397 172.1261 460.8994 228.8691 460.2857 299.4719L460.2857 299.4719 460.2857 300.5714C460.2857 370.7394 516.8497 427.8404 587.0433 428.4286ZM126.7576 428.4286C197.3859 429.0167 255.1006 372.2993 255.7143 301.671 256.3024 231.0427 199.5594 173.3024 128.9567 172.7143 58.354 172.1261 0.6137 228.8691 0 299.4719L0 299.4719 0 300.5714C0 370.7394 56.564 427.8404 126.7576 428.4286ZM587.0433 812C657.6716 812.5881 715.3863 755.8707 716 685.2424 716.5881 614.6141 659.8451 556.8739 589.2424 556.2857 518.6397 555.6976 460.8994 612.4406 460.2857 683.0433L460.2857 683.0433 460.2857 684.1429C460.2857 754.3109 516.8497 811.4119 587.0433 812ZM126.7576 812C197.3859 812.5881 255.1006 755.8707 255.7143 685.2424 256.3024 614.6141 199.5594 556.8739 128.9567 556.2857 58.354 555.6976 0.6137 612.4406 0 683.0433L0 683.0433 0 684.1429C0 754.3109 56.564 811.4119 126.7576 812Z"  horiz-adv-x="716" vert-adv-y="1024"  />

      
      <glyph glyph-name="uniE18B" unicode="&#xE18B;" d="M1024 300C1024 17.2 794.8-212 512-212S0 17.2 0 300 229.2 812 512 812 1024 582.8 1024 300ZM787.7 300C787.7 147.7 664.3 24.3 512 24.3S236.3 147.7 236.3 300C236.3 452.3 359.8 575.7 512.1 575.6 664.3 575.6 787.7 452.2 787.7 300Z"  horiz-adv-x="1024" vert-adv-y="1024"  />

      
      <glyph glyph-name="uniE16C" unicode="&#xE16C;" d="M584-12A72 72 0 0 0 512-84 72 72 0 0 0 440-12 72 72 0 0 0 584-12ZM512 684A70.72 70.72 0 0 1 440 612V604L464 156A48 48 0 0 1 560 156L584 604V612A70.72 70.72 0 0 1 512 684Z"  horiz-adv-x="1024" vert-adv-y="1024"  />

      
      <glyph glyph-name="uniE16D" unicode="&#xE16D;" d="M678.4 514.4L512 344.8 345.6 514.4 297.6 466.4 467.2 300 297.6 133.6 345.6 85.6 512 255.2 678.4 85.6 726.4 133.6 556.8 300 726.4 466.4Z"  horiz-adv-x="1024" vert-adv-y="1024"  />

      
      <glyph glyph-name="uniE16E" unicode="&#xE16E;" d="M827.2 588L387.2 146.4 195.2 340 128 272.8 320 80.8 320 80.8 388.8 12 896 519.2Z"  horiz-adv-x="1024" vert-adv-y="1024"  />

      
      <glyph glyph-name="uniE16F" unicode="&#xE16F;" d="M410.8019 607.7855C466.6925 709.4043 557.3082 709.4053 613.1988 607.7855L872.8329 135.7241C928.7225 34.1053 880.0193-48.2726 764.0582-48.2726L259.9424-48.2726C143.9774-48.2726 95.2782 34.1053 151.1678 135.7241L410.8019 607.7855ZM554.0034 455.7743C554.0034 478.9637 535.2026 497.7636 512.0003 497.7636 488.803 497.7636 469.9972 478.9509 469.9972 455.7743L469.9972 245.7332C469.9972 222.5428 488.7981 203.7439 512.0003 203.7439 535.1977 203.7439 554.0034 222.5556 554.0034 245.7332L554.0034 455.7733 554.0034 455.7743ZM554.0034 119.7388L469.9972 119.7388 469.9972 35.7326 554.0034 35.7326 554.0034 119.7388 554.0034 119.7388Z"  horiz-adv-x="1024" vert-adv-y="1024"  />

      
      <glyph glyph-name="uniE170" unicode="&#xE170;" d="M512.0026 558.2917C657.1691 558.2917 774.8498 440.611 774.8498 295.4445L774.8498 6.3126 866.8463 6.3126C874.1047 6.3126 879.9887 0.4286 879.9887-6.8297L879.9887-59.3992C879.9887-66.6575 874.1047-72.5415 866.8463-72.5415L157.1589-72.5415C149.9006-72.5415 144.0166-66.6575 144.0166-59.3992L144.0166-6.8297C144.0166 0.4286 149.9006 6.3126 157.1589 6.3126L249.1555 6.3126 249.1555 295.4445C249.1555 440.611 366.8362 558.2917 512.0026 558.2917ZM536.8417 422.9254L402.9211 266.7942C401.2956 264.8429 400.9401 262.1297 402.0079 259.8255 403.0757 257.5213 405.3757 256.0386 407.9152 256.0174L491.3691 256.0174 475.7297 146.8044C475.401 143.9578 476.9547 141.2264 479.5695 140.0543 482.1844 138.8821 485.2572 139.5395 487.1636 141.6789L621.0842 297.8101C622.7096 299.7614 623.0652 302.4746 621.9974 304.7788 620.9296 307.083 618.6296 308.5657 616.0901 308.5869L532.6361 308.5869 548.2756 417.7999C548.6043 420.6465 547.0506 423.3779 544.4357 424.5501 541.8209 425.7222 538.748 425.0648 536.8417 422.9254ZM167.4271 539.8929L258.48 487.3235 219.0529 419.0338 128 471.6032 167.4271 539.8929ZM856.5729 539.9241L896 471.6344 804.9471 419.065 765.52 487.3547 856.5729 539.9241ZM335.9185 679.3364L388.4879 588.2835 320.1982 548.8564 267.6287 639.9093 335.9185 679.3364ZM688.0572 679.4173L756.3469 639.9903 703.7774 548.9373 635.4877 588.3644 688.0572 679.4173ZM551.4297 716L551.4297 610.8611 472.5756 610.8611 472.5756 716 551.4297 716Z"  horiz-adv-x="1024" vert-adv-y="1024"  />

      
      <glyph glyph-name="uniE171" unicode="&#xE171;" d="M832 684C867.3462 684 896 655.3462 896 620L896-20C896-55.3462 867.3462-84 832-84L192-84C156.6538-84 128-55.3462 128-20L128 620C128 655.3462 156.6538 684 192 684L832 684ZM673.6705 280.6762L589.2548 196.2355 566.6007 218.8713 492.6807 144.9513 597.8234 39.7847 756.2153 198.1766 741.5527 212.7939 657.1371 128.3532 611.8822 173.6081 696.2979 258.0488 673.6705 280.6762ZM726.6274 514.6274C702.7699 538.4849 664.7631 539.5693 639.6193 517.8807L638.3919 516.9016 307.4659 185.9756 275.8755 64.831 397.9756 95.4659 728.852 426.4554C751.5976 451.5772 750.856 490.3988 726.6274 514.6274ZM324.9085 168.533L382.1518 111.2898 302.1125 88.4937 324.9085 168.533ZM394.1766 560.2153L235.7847 401.8234 356.9367 280.6953 430.8887 354.6153 408.2355 377.2548 492.6511 461.6955 470.0237 484.3229 385.6081 399.8822 340.3532 445.1371 424.7689 529.5778 394.1766 560.2153ZM661.1418 494.1691C673.7111 504.4493 692.2738 503.7262 704 492 715.6042 480.3958 716.433 462.0968 706.4866 449.5362L706.1496 449.1663Z"  horiz-adv-x="1024" vert-adv-y="1024"  />

      
      <glyph glyph-name="uniE172" unicode="&#xE172;" d="M652.5633 684C517.8182 684 408.0258 573.5686 408.0258 438.0392 408.0258 421.8649 409.6894 405.6906 413.0164 389.5163L415.2344 377.8039 128 88.8976 128-84 328.7314-84 328.7314 16.3922 422.443 16.3922 422.443 110.6492 515.0456 110.6492 515.0456 205.4641 546.6525 205.4641 546.6525 214.3878 575.4868 204.9063C599.8851 196.5403 625.9469 192.6362 651.4543 192.6362 786.1994 192.6362 895.9917 303.0675 895.9917 438.597 897.1007 573.5686 787.3084 684 652.5633 684L652.5633 684ZM744.0569 478.1961C744.0569 449.7516 720.7676 426.3268 692.4877 426.3268 664.2079 426.3268 640.9186 449.7516 640.9186 478.1961 640.9186 506.6405 664.2079 530.0654 692.4877 530.0654 720.7676 530.0654 744.0569 507.1983 744.0569 478.1961Z"  horiz-adv-x="1024" vert-adv-y="1024"  />

      
      <glyph glyph-name="uniE176" unicode="&#xE176;" d="M895.808 219.9169L895.968 137.9853C895.968 129.8058 886.72 120.7707 865.888 109.1689 824.896 86.3074 612.576-7.055 567.392-32.2436 522.176-57.4665 497.088-57.227 461.376-38.9515 425.696-20.7102 199.744 76.8959 159.04 97.7039 138.688 108.1079 128 116.9034 128 125.1856L128 208.2124C128.352 199.9302 138.72 191.169 159.04 180.7649 199.744 159.9911 425.664 62.3508 461.376 44.1095 497.088 25.8341 522.176 25.5945 567.392 50.7832 612.576 75.9718 824.928 169.3684 865.888 192.1957 885.792 203.3184 895.488 212.0797 895.808 219.9169ZM895.776 355.2718L895.968 273.3744C895.968 265.1949 886.72 256.1598 865.888 244.5238 824.896 221.6965 612.576 128.2999 567.392 103.1113 522.176 77.9226 497.088 78.1622 461.376 96.4376 425.664 114.6789 199.744 212.285 159.04 233.093 138.688 243.497 128 252.2583 128 260.5405L128 343.5673C128.352 335.3193 138.72 326.5238 159.04 316.1541 199.744 295.346 425.664 197.7057 461.376 179.4644 497.088 161.2232 522.176 160.9836 567.392 186.1723 612.576 211.361 824.928 304.7575 865.888 327.5848 885.76 338.7075 895.456 347.4345 895.776 355.2718ZM469.696 637.6519C517.152 655.8931 533.6 656.5434 574.016 640.732 614.432 624.8864 825.472 535.0491 865.408 519.4088 885.952 511.332 896.16 504.0082 895.776 495.6576L896 413.7944C896 405.6149 886.752 396.5798 865.92 384.9438 824.928 362.1165 612.608 268.7199 567.424 243.5313 522.208 218.3426 497.12 218.5822 461.408 236.8234 425.696 255.0647 199.776 352.705 159.072 373.513 138.72 383.9171 128.0244 392.6783 128.0244 400.9605L128.0244 484.0215C127.712 492.3036 137.472 500.0724 157.472 508.4915 197.44 525.1927 422.144 619.4791 469.696 637.6519ZM580.96 446.2727L403.008 417.0456 527.2 361.9796 580.96 446.2727ZM691.296 537.4448L574.752 488.1626 679.936 443.6717 691.36 448.463 796.608 492.9539 691.296 537.4448ZM355.04 526.6301C302.496 526.6301 259.904 508.9706 259.904 487.2043 259.904 465.4722 302.496 447.7786 355.04 447.7786 407.584 447.7786 450.144 465.438 450.144 487.2043 450.144 508.9706 407.584 526.5958 355.04 526.5958ZM470.4 608.459L487.616 574.5091 430.304 552.4005 507.104 545.0082 531.168 502.2627 546.08 540.5933 612.608 547.9857 561.024 568.6568 574.72 603.7361 524.096 586.0082 470.4 608.459Z"  horiz-adv-x="1024" vert-adv-y="1024"  />

      
      <glyph glyph-name="uniE174" unicode="&#xE174;" d="M636.2353 329.0909C638.1176 337.116 645.6471 341.1285 653.1765 339.1223 664.4706 335.1097 675.7647 329.0909 685.1765 321.0658 687.0588 319.0596 688.9412 315.047 692.7059 313.0408 698.3529 313.0408 702.1176 311.0345 707.7647 311.0345 717.1765 309.0282 724.7059 305.0157 732.2353 298.9969 764.2353 274.9216 786.8235 242.8213 801.8824 204.7022 805.6471 194.6708 807.5294 186.6458 809.4118 176.6144 813.1765 162.5705 818.8235 148.5266 822.5882 134.4828 822.5882 128.4639 826.3529 122.4451 828.2353 116.4263 830.1176 112.4138 833.8824 112.4138 835.7647 110.4075 841.4118 106.395 848.9412 102.3824 854.5882 96.3636 865.8824 86.3323 875.2941 76.3009 884.7059 64.2633 888.4706 60.2508 890.3529 54.232 894.1176 50.2194L894.1176 48.2132C890.3529 48.2132 888.4706 46.2069 884.7059 46.2069 882.8235 45.7053 881.0588 45.4545 879.3529 45.3292L869.3529 45.0784 864 44.2006C860.2353 42.1944 856.4706 42.1944 850.8235 42.1944 852.7059 34.1693 865.8824 26.1442 871.5294 20.1254 879.0588 12.1003 884.7059 4.0752 890.3529-5.9561L896-13.9812C896-15.9875 896-20 894.1176-20 880.9412-15.9875 867.7647-11.9749 854.5882-5.9561 841.4118 0.0627 813.1765 14.1066 813.1765 14.1066 755.5375 43.9931 749.4674 50.52 743.753 56.431L741.5267 58.6631C740.9913 59.1725 740.4138 59.6973 739.7647 60.2508 736 66.2696 730.3529 70.2821 726.5882 76.3009 717.1765 86.3323 709.6471 98.3699 704 110.4075 702.1176 116.4263 700.2353 124.4514 698.3529 130.4702 698.3529 128.4639 696.4706 126.4577 696.4706 124.4514 692.7059 112.4138 692.7059 100.3762 683.2941 96.3636 673.8824 92.3511 666.3529 106.395 664.4706 112.4138 656.9412 138.4953 656.9412 166.5831 666.3529 190.6583 666.3529 196.6771 670.1176 200.6897 672 206.7085 672 208.7147 670.1176 212.7273 668.2353 214.7335 666.3529 218.7461 664.4706 222.7586 662.5882 228.7774 658.8235 238.8088 656.9412 250.8464 655.0588 260.8777 655.0588 264.8903 655.0588 268.9028 653.1765 272.9154 651.2941 278.9342 649.4118 284.953 645.6471 290.9718 641.8824 298.9969 628.7059 315.047 636.2353 329.0909ZM146.8235 206.7085C190.1176 162.5705 312.4706 130.4702 457.4118 130.4702 510.1176 130.4702 560.9412 134.4828 604.2353 142.5078 604.2353 124.4514 608 106.395 613.6471 90.3448L613.6471 86.3323C634.3529 40.1881 668.2353 34.1693 681.4118 34.1693L687.0588 34.1693C692.7059 28.1505 696.4706 22.1317 702.1176 18.1191 643.7647-5.9561 555.2941-20 457.4118-20 276.7059-20 129.8824 30.1567 129.8824 92.3511L129.8824 198.6834C129.8824 208.7147 139.2941 212.7273 146.8235 206.7085ZM144.9412 415.3605C188.2353 371.2226 310.5882 339.1223 455.5294 339.1223 500.7059 339.1223 542.1176 341.1285 581.6471 347.1473 570.3529 309.0282 589.1765 276.9279 594.8235 264.8903L596.7059 262.884 596.7059 258.8715C596.7059 256.8652 598.5882 256.8652 598.5882 254.8589 598.5882 252.8527 600.4706 248.8401 600.4706 246.8339 604.2353 232.79 606.1176 220.7524 609.8824 208.7147 609.8824 206.7085 611.7647 204.7022 611.7647 202.6959L611.7647 200.6897C566.5882 190.6583 513.8824 186.6458 457.4118 186.6458 274.8235 186.6458 128 236.8025 128 298.9969L128 407.3354C128 417.3668 137.4118 421.3793 144.9412 415.3605ZM700.2353 296.9906C692.7059 298.9969 685.1765 292.9781 690.8235 286.9592 694.5882 280.9404 698.3529 270.9091 700.2353 262.884 709.6471 264.8903 713.4118 276.9279 711.5294 286.9592 711.5294 288.9655 709.6471 288.9655 709.6471 290.9718 707.7647 292.9781 705.8824 296.9906 702.1176 296.9906ZM457.4118 620C638.3013 620 784.9412 569.6987 784.9412 507.6489 784.9412 445.5991 638.3013 395.2978 457.4118 395.2978 276.5223 395.2978 129.8824 445.5991 129.8824 507.6489 129.8824 569.6987 276.5223 620 457.4118 620Z"  horiz-adv-x="1024" vert-adv-y="1024"  />

      
      <glyph glyph-name="uniE177" unicode="&#xE177;" d="M96.13 305.122C96.052 302.47 96 299.35 96 296.23 96 254.604 103.6688 214.772 117.6806 178.06L116.9267 180.322 423.6788 180.322C433.5053 216.176 439.1984 257.386 439.2764 299.87L439.2764 299.922C439.2764 300.858 439.2764 301.976 439.2764 303.094 439.2764 344.512 433.5833 384.604 422.9249 422.642L423.6788 419.522 111.7275 419.522C101.8231 386.138 96.13 347.762 96.13 308.086 96.13 307.046 96.13 306.006 96.13 304.966L96.13 305.122 96.13 305.122ZM714.8333 419.522L480.8699 419.522C490.7743 384.604 496.4674 344.512 496.4674 303.094 496.4674 301.976 496.4674 300.858 496.4674 299.766L496.4674 299.948C496.3894 257.386 490.6963 216.202 480.116 177.046L480.8699 180.348 714.8333 180.348C716.783 180.244 719.0706 180.166 721.3843 180.166 788.2718 180.166 842.7333 233.362 844.813 299.74L844.813 299.922C842.7333 366.508 788.2718 419.704 721.3843 419.704 719.0706 419.704 716.783 419.652 714.5214 419.522L714.8333 419.548 714.8333 419.522ZM142.9227 476.722L408.0812 476.722C377.0161 540.188 340.6218 594.866 298.0664 644.11L298.8983 643.122C231.8028 603.498 178.4851 546.818 143.9625 478.984L142.9227 476.722ZM761.626 476.722C762.5099 476.722 763.5237 476.696 764.5635 476.696 828.3836 476.696 886.1465 502.54 928 544.322L928 544.322C838.21 649.648 705.4488 716 557.1679 716 554.1004 716 551.0589 715.974 547.9914 715.922L548.4593 715.922C546.3276 715.948 543.832 715.974 541.3104 715.974 469.9256 715.974 402.5961 698.658 343.2734 667.978L345.691 669.122C394.8233 616.992 433.7652 554.644 458.8773 485.64L460.0731 481.922 761.626 476.722ZM137.7235 123.122L402.882 123.122C377.666 59.76 340.5438 5.94 293.9331-37.87L293.6991-38.078C227.9294 1.208 175.0277 55.808 138.8153 120.964L137.7235 123.122ZM761.626 123.122C762.5099 123.122 763.5237 123.148 764.5635 123.148 828.3836 123.148 886.1465 97.304 928 55.522L928 55.522C836.9102-49.83 703.0571-116.104 553.7365-116.104 551.8908-116.104 550.0191-116.104 548.1733-116.078L548.4593-116.078C474.6048-114.596 405.0917-97.514 342.6235-67.978L345.691-69.278C394.8233-17.148 433.7652 45.2 458.8773 114.204L460.0731 117.922 761.626 123.122Z"  horiz-adv-x="1024" vert-adv-y="1024"  />

      
      </font>
</defs>
</svg>
